<?xml version="1.0" encoding="utf-8"?>
<!-- Generator: Adobe Illustrator 27.2.0, SVG Export Plug-In . SVG Version: 6.00 Build 0)  -->
<svg version="1.1"
	 id="svg3476" xmlns:svg="http://www.w3.org/2000/svg" xmlns:cc="http://creativecommons.org/ns#" xmlns:dc="http://purl.org/dc/elements/1.1/" xmlns:inkscape="http://www.inkscape.org/namespaces/inkscape" xmlns:sodipodi="http://sodipodi.sourceforge.net/DTD/sodipodi-0.dtd" xmlns:rdf="http://www.w3.org/1999/02/22-rdf-syntax-ns#"
	 xmlns="http://www.w3.org/2000/svg" xmlns:xlink="http://www.w3.org/1999/xlink" x="0px" y="0px" viewBox="0 0 25 25"
	 style="enable-background:new 0 0 25 25;" xml:space="preserve">
<style type="text/css">
	.st0{fill:#264DE4;}
	.st1{fill:#2965F1;}
	.st2{fill:#EBEBEB;}
	.st3{fill:#FFFFFF;}
</style>
<sodipodi:namedview  bordercolor="#666666" borderopacity="1.0" fit-margin-bottom="0" fit-margin-left="0" fit-margin-right="0" fit-margin-top="0" id="base" inkscape:current-layer="layer1" inkscape:cx="181.367" inkscape:cy="256" inkscape:document-units="px" inkscape:pageopacity="0.0" inkscape:pageshadow="2" inkscape:window-height="704" inkscape:window-maximized="1" inkscape:window-width="1366" inkscape:window-x="0" inkscape:window-y="27" inkscape:zoom="0.35" pagecolor="#ffffff" showgrid="false">
	</sodipodi:namedview>
<g>
	<polygon id="polygon2989" class="st0" points="23.1,0.5 21.2,22.1 12.5,24.5 3.8,22.1 1.9,0.5 	"/>
	<polygon id="polygon2991" class="st1" points="19.5,20.7 21.2,2.3 12.5,2.3 12.5,22.7 	"/>
	<polygon id="polygon2993" class="st2" points="6.3,10.3 6.6,12.9 12.5,12.9 12.5,10.3 	"/>
	<polygon id="polygon2995" class="st2" points="12.5,4.9 12.5,4.9 5.9,4.9 6.1,7.6 12.5,7.6 	"/>
	<polygon id="polygon2997" class="st2" points="12.5,19.9 12.5,17.2 12.5,17.2 9.5,16.4 9.3,14.3 7.9,14.3 6.7,14.3 7.1,18.4 
		12.5,19.9 	"/>
	<polygon id="polygon3005" class="st3" points="15.8,12.9 15.4,16.4 12.5,17.2 12.5,19.9 17.9,18.4 18,18 18.6,11 18.6,10.3 
		19.1,4.9 12.5,4.9 12.5,7.6 16.2,7.6 16,10.3 12.5,10.3 12.5,12.9 	"/>
</g>
</svg>
