<?xml version="1.0" encoding="utf-8"?>
<!-- Generator: Adobe Illustrator 27.2.0, SVG Export Plug-In . SVG Version: 6.00 Build 0)  -->
<svg version="1.1"
	 id="svg3430" xmlns:rdf="http://www.w3.org/1999/02/22-rdf-syntax-ns#" xmlns:dc="http://purl.org/dc/elements/1.1/" xmlns:cc="http://creativecommons.org/ns#" xmlns:svg="http://www.w3.org/2000/svg"
	 xmlns="http://www.w3.org/2000/svg" xmlns:xlink="http://www.w3.org/1999/xlink" x="0px" y="0px" viewBox="0 0 25 25"
	 style="enable-background:new 0 0 25 25;" xml:space="preserve">
<style type="text/css">
	.st0{clip-path:url(#SVGID_00000075877972881654329800000003524886095297782656_);}
	.st1{fill:url(#path3462_00000164492834265533544260000014958948503943500958_);}
	.st2{clip-path:url(#SVGID_00000115501062144387987000000003239427363575839374_);}
	.st3{fill:#777BB3;}
	.st4{clip-path:url(#SVGID_00000131363514249370726770000008885019042245607815_);}
	.st5{fill:#FFFFFF;}
</style>
<g id="g3438" transform="matrix(1.25,0,0,-1.25,-4.4,394.29875)">
	<g id="g3440">
		<g>
			<defs>
				<path id="SVGID_1_" d="M4.3,305.4c0-2.7,4.1-4.8,9.2-4.8l0,0c5.1,0,9.2,2.2,9.2,4.8l0,0c0,2.7-4.1,4.8-9.2,4.8l0,0
					C8.4,310.3,4.3,308.1,4.3,305.4"/>
			</defs>
			<clipPath id="SVGID_00000050631103799385109680000010615816351178335367_">
				<use xlink:href="#SVGID_1_"  style="overflow:visible;"/>
			</clipPath>
			<g id="g3442" style="clip-path:url(#SVGID_00000050631103799385109680000010615816351178335367_);">
				<g id="g3448">
					<g id="g3450">
						
							<radialGradient id="path3462_00000115487678619645897990000007487766166861938366_" cx="3.0702" cy="295.5633" r="3.333334e-02" gradientTransform="matrix(453.8224 0 0 -453.8224 -1383.4856 134441.8281)" gradientUnits="userSpaceOnUse">
							<stop  offset="0" style="stop-color:#AEB2D5"/>
							<stop  offset="0.3" style="stop-color:#AEB2D5"/>
							<stop  offset="0.75" style="stop-color:#484C89"/>
							<stop  offset="1" style="stop-color:#484C89"/>
						</radialGradient>
						<path id="path3462" style="fill:url(#path3462_00000115487678619645897990000007487766166861938366_);" d="M4.3,305.4
							c0-2.7,4.1-4.8,9.2-4.8l0,0c5.1,0,9.2,2.2,9.2,4.8l0,0c0,2.7-4.1,4.8-9.2,4.8l0,0C8.4,310.3,4.3,308.1,4.3,305.4"/>
					</g>
				</g>
			</g>
		</g>
	</g>
	<g id="g3464">
		<g>
			<defs>
				<rect id="SVGID_00000155847298039260126700000018111067433971400090_" x="1.5" y="298.7" width="24" height="13.5"/>
			</defs>
			<clipPath id="SVGID_00000178167769999345686520000015217454852567727799_">
				<use xlink:href="#SVGID_00000155847298039260126700000018111067433971400090_"  style="overflow:visible;"/>
			</clipPath>
			<g id="g3466" style="clip-path:url(#SVGID_00000178167769999345686520000015217454852567727799_);">
				<g id="g3472" transform="translate(288,27.3594)">
					<path id="path3474" class="st3" d="M-274.5,273.6c4.9,0,8.9,2,8.9,4.5c0,2.5-4,4.5-8.9,4.5c-4.9,0-8.9-2-8.9-4.5
						C-283.3,275.6-279.4,273.6-274.5,273.6"/>
				</g>
			</g>
		</g>
	</g>
	<g id="g3476">
		<g>
			<defs>
				<rect id="SVGID_00000097499875734042157300000000353177869913250730_" x="1.5" y="298.7" width="24" height="13.5"/>
			</defs>
			<clipPath id="SVGID_00000054225495133596008460000017336160826549060263_">
				<use xlink:href="#SVGID_00000097499875734042157300000000353177869913250730_"  style="overflow:visible;"/>
			</clipPath>
			<g id="g3478" style="clip-path:url(#SVGID_00000054225495133596008460000017336160826549060263_);">
				<g id="g3484" transform="translate(161.7344,145.3066)">
					<path id="path3486" d="M-152.4,159.6c0.4,0,0.7,0.1,0.9,0.2c0.2,0.1,0.3,0.4,0.4,0.7c0.1,0.3,0,0.6-0.1,0.7
						c-0.1,0.1-0.4,0.2-0.7,0.2h-0.6l-0.4-1.8H-152.4z M-154.5,157.3C-154.6,157.3-154.6,157.3-154.5,157.3
						c-0.1,0.1-0.1,0.1-0.1,0.1l0.9,4.9c0,0,0.1,0.1,0.1,0.1h2c0.6,0,1.1-0.2,1.4-0.5c0.3-0.3,0.4-0.8,0.3-1.4
						c0-0.2-0.1-0.5-0.2-0.7c-0.1-0.2-0.3-0.4-0.5-0.6c-0.2-0.2-0.5-0.4-0.7-0.4c-0.3-0.1-0.6-0.1-1-0.1h-0.8l-0.2-1.2
						c0,0-0.1-0.1-0.1-0.1H-154.5z"/>
				</g>
				<g id="g3488" transform="translate(159.2236,197.3071)">
					<path id="path3490" class="st5" d="M-150,109.3h0.6c0.4,0,0.6-0.1,0.7-0.2c0.1-0.1,0.1-0.3,0-0.6c-0.1-0.3-0.2-0.6-0.3-0.7
						c-0.2-0.1-0.5-0.2-0.8-0.2h-0.4L-150,109.3z M-149,110.5h-2c-0.1,0-0.2-0.1-0.2-0.2l-0.9-4.9c0-0.1,0-0.1,0-0.2
						c0,0,0.1-0.1,0.2-0.1h1.1c0.1,0,0.2,0.1,0.2,0.2l0.2,1.1h0.7c0.4,0,0.8,0,1,0.1c0.3,0.1,0.5,0.2,0.8,0.5
						c0.2,0.2,0.3,0.4,0.5,0.6c0.1,0.2,0.2,0.5,0.3,0.7c0.1,0.6,0,1.1-0.3,1.5C-147.9,110.3-148.4,110.5-149,110.5 M-150.6,107.5
						h0.6c0.4,0,0.7,0.1,1,0.2c0.2,0.2,0.3,0.4,0.4,0.8c0.1,0.4,0,0.6-0.1,0.8c-0.1,0.1-0.4,0.2-0.8,0.2h-0.7L-150.6,107.5
						 M-149,110.3c0.6,0,1.1-0.2,1.3-0.5c0.3-0.3,0.4-0.8,0.3-1.3c0-0.2-0.1-0.5-0.2-0.7c-0.1-0.2-0.3-0.4-0.4-0.5
						c-0.2-0.2-0.4-0.3-0.7-0.4c-0.3-0.1-0.6-0.1-1-0.1h-0.9l-0.3-1.3h-1.1l0.9,4.9H-149"/>
				</g>
				<g id="g3492" transform="translate(311.583,116.3066)">
					<path id="path3494" d="M-297.3,187.6C-297.3,187.6-297.3,187.6-297.3,187.6c-0.1,0.1-0.1,0.1-0.1,0.1l0.4,2.1
						c0,0.2,0,0.4,0,0.4c0,0-0.1,0.1-0.5,0.1h-0.8l-0.5-2.7c0,0-0.1-0.1-0.1-0.1h-1c0,0-0.1,0-0.1,0c0,0,0,0.1,0,0.1l0.9,4.9
						c0,0,0.1,0.1,0.1,0.1h1.1c0,0,0.1,0,0.1,0c0,0,0-0.1,0-0.1l-0.2-1.2h0.8c0.6,0,1-0.1,1.3-0.3c0.2-0.2,0.3-0.6,0.2-1.1l-0.4-2.3
						c0,0-0.1-0.1-0.1-0.1H-297.3z"/>
				</g>
				<g id="g3496" transform="translate(293.6611,271.0571)">
					<path id="path3498" class="st5" d="M-280,38h-1.1c-0.1,0-0.2-0.1-0.2-0.2l-0.9-4.9c0-0.1,0-0.1,0-0.2c0,0,0.1-0.1,0.2-0.1h1
						c0.1,0,0.2,0.1,0.2,0.2l0.5,2.6h0.7c0.3,0,0.4-0.1,0.4-0.1c0,0,0-0.1,0-0.3l-0.4-2.1c0-0.1,0-0.1,0-0.2s0.1-0.1,0.2-0.1h1.1
						c0.1,0,0.2,0.1,0.2,0.2l0.4,2.3c0.1,0.5,0,0.9-0.3,1.2c-0.3,0.2-0.7,0.4-1.4,0.4h-0.7l0.2,1.1c0,0.1,0,0.1,0,0.2
						C-279.8,38-279.9,38-280,38 M-280,37.8l-0.3-1.3h0.9c0.6,0,1-0.1,1.2-0.3c0.2-0.2,0.3-0.5,0.2-1l-0.4-2.3h-1.1l0.4,2.1
						c0,0.2,0,0.4-0.1,0.5s-0.3,0.1-0.5,0.1h-0.8l-0.5-2.8h-1l0.9,4.9H-280"/>
				</g>
				<g id="g3500" transform="translate(409.5498,145.3066)">
					<path id="path3502" d="M-392,159.6c0.4,0,0.7,0.1,0.9,0.2c0.2,0.1,0.3,0.4,0.4,0.7c0.1,0.3,0,0.6-0.1,0.7
						c-0.1,0.1-0.4,0.2-0.7,0.2h-0.6l-0.4-1.8H-392z M-394.1,157.3C-394.1,157.3-394.1,157.3-394.1,157.3c-0.1,0.1-0.1,0.1-0.1,0.1
						l0.9,4.9c0,0,0.1,0.1,0.1,0.1h2c0.6,0,1.1-0.2,1.4-0.5c0.3-0.3,0.4-0.8,0.3-1.4c0-0.2-0.1-0.5-0.2-0.7
						c-0.1-0.2-0.3-0.4-0.5-0.6c-0.2-0.2-0.5-0.4-0.7-0.4c-0.3-0.1-0.6-0.1-1-0.1h-0.8l-0.2-1.2c0,0-0.1-0.1-0.1-0.1H-394.1z"/>
				</g>
				<g id="g3504" transform="translate(407.0391,197.3071)">
					<path id="path3506" class="st5" d="M-389.6,109.3h0.6c0.4,0,0.6-0.1,0.7-0.2c0.1-0.1,0.1-0.3,0-0.6c-0.1-0.3-0.2-0.6-0.3-0.7
						c-0.2-0.1-0.5-0.2-0.8-0.2h-0.4L-389.6,109.3z M-388.6,110.5h-2c-0.1,0-0.2-0.1-0.2-0.2l-0.9-4.9c0-0.1,0-0.1,0-0.2
						c0,0,0.1-0.1,0.2-0.1h1.1c0.1,0,0.2,0.1,0.2,0.2l0.2,1.1h0.7c0.4,0,0.8,0,1,0.1c0.3,0.1,0.5,0.2,0.8,0.5
						c0.2,0.2,0.3,0.4,0.5,0.6c0.1,0.2,0.2,0.5,0.3,0.7c0.1,0.6,0,1.1-0.3,1.5C-387.4,110.3-387.9,110.5-388.6,110.5 M-390.1,107.5
						h0.6c0.4,0,0.7,0.1,1,0.2c0.2,0.2,0.3,0.4,0.4,0.8c0.1,0.4,0,0.6-0.1,0.8c-0.1,0.1-0.4,0.2-0.8,0.2h-0.7L-390.1,107.5
						 M-388.6,110.3c0.6,0,1.1-0.2,1.3-0.5s0.4-0.8,0.3-1.3c0-0.2-0.1-0.5-0.2-0.7c-0.1-0.2-0.3-0.4-0.4-0.5
						c-0.2-0.2-0.4-0.3-0.7-0.4c-0.3-0.1-0.6-0.1-1-0.1h-0.9l-0.3-1.3h-1.1l0.9,4.9H-388.6"/>
				</g>
			</g>
		</g>
	</g>
</g>
</svg>
