<?xml version="1.0" encoding="utf-8"?>
<!-- Generator: Adobe Illustrator 27.2.0, SVG Export Plug-In . SVG Version: 6.00 Build 0)  -->
<svg version="1.1" id="Layer_1" xmlns="http://www.w3.org/2000/svg" xmlns:xlink="http://www.w3.org/1999/xlink" x="0px" y="0px"
	 viewBox="0 0 25 25" style="enable-background:new 0 0 25 25;" xml:space="preserve">
<style type="text/css">
	.st0{fill:#3178C6;}
	.st1{fill-rule:evenodd;clip-rule:evenodd;fill:#FFFFFF;}
</style>
<g>
	<path class="st0" d="M2.8,0.5h19.3c1.3,0,2.3,1,2.3,2.3v19.3c0,1.3-1,2.3-2.3,2.3H2.8c-1.3,0-2.3-1-2.3-2.3V2.8
		C0.5,1.5,1.5,0.5,2.8,0.5z"/>
	<path class="st1" d="M15.4,19.6v2.3c0.4,0.2,0.8,0.3,1.4,0.4c0.5,0.1,1.1,0.1,1.6,0.1c0.6,0,1.1-0.1,1.6-0.2c0.5-0.1,1-0.3,1.3-0.5
		c0.4-0.2,0.7-0.6,0.9-1s0.3-0.9,0.3-1.5c0-0.4-0.1-0.8-0.2-1.1s-0.3-0.6-0.6-0.9c-0.2-0.2-0.5-0.5-0.9-0.7
		c-0.3-0.2-0.7-0.4-1.1-0.6c-0.3-0.1-0.6-0.3-0.8-0.4c-0.2-0.1-0.5-0.2-0.6-0.4c-0.2-0.1-0.3-0.3-0.4-0.4c-0.1-0.1-0.1-0.3-0.1-0.5
		c0-0.2,0-0.3,0.1-0.4c0.1-0.1,0.2-0.2,0.4-0.3c0.2-0.1,0.3-0.2,0.6-0.2c0.2-0.1,0.5-0.1,0.7-0.1c0.2,0,0.4,0,0.6,0
		c0.2,0,0.4,0.1,0.7,0.1c0.2,0.1,0.4,0.1,0.6,0.2c0.2,0.1,0.4,0.2,0.6,0.3v-2.2c-0.4-0.1-0.7-0.2-1.2-0.3c-0.4-0.1-0.9-0.1-1.5-0.1
		c-0.6,0-1.1,0.1-1.6,0.2s-0.9,0.3-1.3,0.6c-0.4,0.3-0.7,0.6-0.9,1c-0.2,0.4-0.3,0.9-0.3,1.4c0,0.7,0.2,1.3,0.6,1.8
		c0.4,0.5,1,0.9,1.8,1.3c0.3,0.1,0.6,0.3,0.9,0.4c0.3,0.1,0.5,0.3,0.7,0.4c0.2,0.1,0.4,0.3,0.5,0.4c0.1,0.2,0.2,0.3,0.2,0.5
		c0,0.2,0,0.3-0.1,0.4c-0.1,0.1-0.2,0.2-0.3,0.3c-0.1,0.1-0.3,0.2-0.6,0.2c-0.2,0.1-0.5,0.1-0.8,0.1c-0.5,0-1-0.1-1.5-0.3
		C16.2,20.2,15.8,20,15.4,19.6L15.4,19.6z M11.4,13.8h3v-1.9H6v1.9h3v8.6h2.4V13.8z"/>
</g>
</svg>
