<?xml version="1.0" encoding="utf-8"?>
<!-- Generator: Adobe Illustrator 27.2.0, SVG Export Plug-In . SVG Version: 6.00 Build 0)  -->
<svg version="1.1" id="Layer_1" xmlns="http://www.w3.org/2000/svg" xmlns:xlink="http://www.w3.org/1999/xlink" x="0px" y="0px"
	 viewBox="0 0 25 25" style="enable-background:new 0 0 25 25;" xml:space="preserve">
<style type="text/css">
	.st0{fill:#5C8DBC;}
	.st1{fill:#1A4674;}
	.st2{fill:#1B598E;}
	.st3{fill:#FFFFFF;}
</style>
<g>
	<path class="st0" d="M23.2,7.6c0-0.4-0.1-0.8-0.3-1.1c-0.2-0.3-0.4-0.6-0.8-0.8c-2.8-1.6-5.7-3.3-8.5-4.9c-0.8-0.4-1.5-0.4-2.3,0
		c-1.1,0.7-6.8,3.9-8.5,4.9c-0.7,0.4-1,1-1,1.8c0,3.3,0,6.6,0,9.9c0,0.4,0.1,0.7,0.2,1c0.2,0.3,0.4,0.6,0.8,0.8
		c1.7,1,7.4,4.2,8.5,4.9c0.8,0.4,1.5,0.5,2.3,0c2.8-1.6,5.7-3.3,8.5-4.9c0.4-0.2,0.6-0.5,0.8-0.8c0.2-0.3,0.2-0.7,0.2-1
		C23.2,17.4,23.2,10.9,23.2,7.6"/>
	<path class="st1" d="M12.5,12.5l-10.5,6c0.2,0.3,0.4,0.6,0.8,0.8c1.7,1,7.4,4.2,8.5,4.9c0.8,0.4,1.5,0.5,2.3,0
		c2.8-1.6,5.7-3.3,8.5-4.9c0.4-0.2,0.6-0.5,0.8-0.8L12.5,12.5"/>
	<path class="st1" d="M9.4,14.3c0.6,1.1,1.8,1.8,3.1,1.8c1.3,0,2.5-0.7,3.1-1.8l-3-1.8L9.4,14.3"/>
	<path class="st2" d="M23.2,7.6c0-0.4-0.1-0.8-0.3-1.1l-10.4,6l10.4,6c0.2-0.3,0.2-0.7,0.2-1C23.2,17.4,23.2,10.9,23.2,7.6"/>
	<path class="st3" d="M22.6,12.9h-0.8v0.8H21v-0.8h-0.8v-0.8H21v-0.8h0.8v0.8h0.8V12.9 M19.6,12.9h-0.8v0.8H18v-0.8h-0.8v-0.8H18
		v-0.8h0.8v0.8h0.8V12.9"/>
	<path class="st3" d="M15.6,14.2C15,15.3,13.8,16,12.5,16c-1.3,0-2.5-0.7-3.1-1.8C9.1,13.7,9,13.1,9,12.5c0-2,1.6-3.5,3.5-3.5
		c1.3,0,2.4,0.7,3.1,1.8L18.6,9c-1.2-2.1-3.5-3.5-6.1-3.5c-3.9,0-7.1,3.2-7.1,7.1c0,1.3,0.3,2.5,0.9,3.5c1.2,2.1,3.5,3.6,6.2,3.6
		c2.6,0,4.9-1.4,6.2-3.6L15.6,14.2"/>
</g>
</svg>
