<?xml version="1.0" encoding="utf-8"?>
<!-- Generator: Adobe Illustrator 27.2.0, SVG Export Plug-In . SVG Version: 6.00 Build 0)  -->
<svg version="1.1" id="Layer_1" xmlns="http://www.w3.org/2000/svg" xmlns:xlink="http://www.w3.org/1999/xlink" x="0px" y="0px"
	 viewBox="0 0 25 25" style="enable-background:new 0 0 25 25;" xml:space="preserve">
<style type="text/css">
	.st0{fill-rule:evenodd;clip-rule:evenodd;fill:#282829;}
	.st1{fill-rule:evenodd;clip-rule:evenodd;fill:#ADAFB2;}
	.st2{fill-rule:evenodd;clip-rule:evenodd;fill:#FFFFFF;}
	.st3{fill-rule:evenodd;clip-rule:evenodd;fill:#9B9DA0;}
	.st4{fill-rule:evenodd;clip-rule:evenodd;fill:#999B9E;}
	.st5{fill-rule:evenodd;clip-rule:evenodd;fill:#97999C;}
	.st6{fill-rule:evenodd;clip-rule:evenodd;fill:#95979A;}
	.st7{fill-rule:evenodd;clip-rule:evenodd;fill:#939598;}
	.st8{fill-rule:evenodd;clip-rule:evenodd;fill:#919396;}
	.st9{fill-rule:evenodd;clip-rule:evenodd;fill:#8F9194;}
	.st10{fill-rule:evenodd;clip-rule:evenodd;fill:#8D9092;}
	.st11{fill-rule:evenodd;clip-rule:evenodd;fill:#8C8E90;}
	.st12{fill-rule:evenodd;clip-rule:evenodd;fill:#8A8C8E;}
	.st13{fill-rule:evenodd;clip-rule:evenodd;fill:#888A8C;}
	.st14{fill-rule:evenodd;clip-rule:evenodd;fill:#86888A;}
	.st15{fill-rule:evenodd;clip-rule:evenodd;fill:#848689;}
	.st16{fill-rule:evenodd;clip-rule:evenodd;fill:#828487;}
	.st17{fill-rule:evenodd;clip-rule:evenodd;fill:#808285;}
	.st18{fill-rule:evenodd;clip-rule:evenodd;fill:#7E8083;}
	.st19{fill-rule:evenodd;clip-rule:evenodd;fill:#7D7E81;}
	.st20{fill-rule:evenodd;clip-rule:evenodd;fill:#7B7C7F;}
	.st21{fill-rule:evenodd;clip-rule:evenodd;fill:#797A7D;}
	.st22{fill-rule:evenodd;clip-rule:evenodd;fill:#77787B;}
	.st23{fill-rule:evenodd;clip-rule:evenodd;fill:#757679;}
	.st24{fill-rule:evenodd;clip-rule:evenodd;fill:#737577;}
	.st25{fill-rule:evenodd;clip-rule:evenodd;fill:#717375;}
	.st26{fill-rule:evenodd;clip-rule:evenodd;fill:#6F7173;}
	.st27{fill-rule:evenodd;clip-rule:evenodd;fill:#6D6E71;}
	.st28{fill-rule:evenodd;clip-rule:evenodd;fill:#6B6C6F;}
	.st29{fill-rule:evenodd;clip-rule:evenodd;fill:#696A6D;}
	.st30{fill-rule:evenodd;clip-rule:evenodd;fill:#67686B;}
	.st31{fill-rule:evenodd;clip-rule:evenodd;fill:#656668;}
	.st32{fill-rule:evenodd;clip-rule:evenodd;fill:#636466;}
	.st33{fill-rule:evenodd;clip-rule:evenodd;fill:#616264;}
	.st34{fill-rule:evenodd;clip-rule:evenodd;fill:#5F6062;}
	.st35{fill-rule:evenodd;clip-rule:evenodd;fill:#5C5D60;}
	.st36{fill-rule:evenodd;clip-rule:evenodd;fill:#5A5B5D;}
	.st37{fill-rule:evenodd;clip-rule:evenodd;fill:#58595B;}
	.st38{fill-rule:evenodd;clip-rule:evenodd;fill:#565759;}
	.st39{fill-rule:evenodd;clip-rule:evenodd;fill:#545456;}
	.st40{fill-rule:evenodd;clip-rule:evenodd;fill:#515254;}
	.st41{fill-rule:evenodd;clip-rule:evenodd;fill:#4F4F51;}
	.st42{fill-rule:evenodd;clip-rule:evenodd;fill:#4D4D4F;}
	.st43{fill-rule:evenodd;clip-rule:evenodd;fill:#4A4B4C;}
	.st44{fill-rule:evenodd;clip-rule:evenodd;fill:#48484A;}
	.st45{fill-rule:evenodd;clip-rule:evenodd;}
	.st46{fill-rule:evenodd;clip-rule:evenodd;fill:#9FA1A4;}
	.st47{fill-rule:evenodd;clip-rule:evenodd;fill:#464547;}
	.st48{fill-rule:evenodd;clip-rule:evenodd;fill:#434345;}
	.st49{fill-rule:evenodd;clip-rule:evenodd;fill:#414042;}
	.st50{fill-rule:evenodd;clip-rule:evenodd;fill:#3D3D3E;}
	.st51{fill-rule:evenodd;clip-rule:evenodd;fill:#383839;}
	.st52{fill-rule:evenodd;clip-rule:evenodd;fill:#333334;}
	.st53{fill-rule:evenodd;clip-rule:evenodd;fill:#2E2E2F;}
	.st54{fill-rule:evenodd;clip-rule:evenodd;fill:#222223;}
	.st55{fill-rule:evenodd;clip-rule:evenodd;fill:#1C1B1C;}
	.st56{fill-rule:evenodd;clip-rule:evenodd;fill:#141414;}
	.st57{fill-rule:evenodd;clip-rule:evenodd;fill:#0B0A0B;}
	.st58{fill-rule:evenodd;clip-rule:evenodd;fill:#D1D3D4;}
	.st59{fill-rule:evenodd;clip-rule:evenodd;fill:#EEF3F6;}
	.st60{fill-rule:evenodd;clip-rule:evenodd;fill:#9D9FA2;}
</style>
<g>
	<path class="st0" d="M4.1,12L4.1,12C4.2,12,4.4,12,4.6,12H4.1L4.1,12z"/>
	<path class="st0" d="M23,20.4c-0.3-0.6-0.6-1.1-1-1.7c-0.4-0.6-0.9-1.2-1.4-1.7c-0.5-0.5-1-0.9-1.5-1.3c-1.1-0.8-2.5-1.4-4.1-1.9
		c-0.6-0.2-1.2-0.3-1.8-0.3l-0.8,0l0-0.1l1.2-1.4c0,0,0-0.1,0.1-0.1c0.5-0.6,1-1,1.4-1.3c0.9,0.5,1.8,0.6,2.5,0.4
		c0.6-0.2,1.3-0.6,2-1.3c0.7-0.7,1-1.2,0.8-1.6c-0.2-0.6-0.7-0.9-1.5-0.9c-0.4,0-0.8,0.2-1.4,0.5c-0.4,0.3-0.8,0.5-1,0.7
		c-1.7-0.8-3-1.2-3.7-1.4C9.9,6.5,7.5,7.4,5.5,9.7c-1.1,1.3-1.6,2-1.5,2.2L4.1,12h0.6c0.2,0,0.3-0.1,0.6-0.2
		c1.2-0.4,1.8-0.7,1.7-0.9l0-0.7c0-0.5,0.4-1,1.1-1.5c1.1-0.7,2.2-0.9,3.2-0.4c0.3,0.2,0.8,0.4,1.4,0.8c0.7,0.5,1.2,0.8,1.5,1
		c0,0,0,0.1,0,0.1c-0.6,0.5-1.2,1.1-1.8,1.7c-0.3,0.3-0.5,0.6-0.8,0.9l-0.6,0.9c-0.7,0.1-1.5,0.4-2.6,0.9c-1.6,0.8-2.9,1.5-3.8,2.2
		C4.5,16.9,4.4,17,4.3,17c-1.2,0.9-2,2-2.6,3.1l-0.1,0.4c0,0.2,0,0.3,0.1,0.3c0.8,0.3,1.9,0.1,3.4-0.6c1.1-0.5,2.2-1.3,3.4-2.4
		c0.3-0.3,0.6-0.6,0.9-0.9c0.4-0.4,0.7-0.8,1.1-1.3l1.5-0.1c1.2,0,2.5,0.2,3.8,0.4c1.3,0.2,2.3,0.5,2.9,0.9c0.3,0.2,0.5,0.3,0.7,0.5
		c0.4,0.4,0.5,0.7,0.4,1.1L19.7,19c0,0.1-0.1,0.2,0,0.3c0.1,0.4,0.6,0.8,1.3,1.4c0.7,0.5,1.3,1,1.9,1.2c0.3,0.1,0.5,0.2,0.6,0
		C23.5,21.7,23.4,21.2,23,20.4L23,20.4z M5.1,11.7l-0.1,0.1l-0.5,0.1c-0.2,0-0.2,0-0.1-0.1l0.4-0.2C4.9,11.5,5,11.5,5,11.5
		C5.1,11.5,5.1,11.6,5.1,11.7C5.1,11.7,5.1,11.7,5.1,11.7L5.1,11.7z M5.6,10.9c0.1-0.1,0.2-0.4,0.4-1c0.2-0.5,0.4-0.8,0.6-0.9
		c0.1,0,0.1,0,0,0.3C6.5,9.7,6.4,10,6.3,10.3c-0.1,0.3-0.1,0.4-0.2,0.5c-0.2,0.2-0.3,0.3-0.5,0.3C5.6,11.1,5.6,11,5.6,10.9L5.6,10.9
		z M5.2,11.6c0-0.1,0-0.1,0.1-0.1l0.4-0.2c0.1-0.1,0.2-0.1,0.2,0c0,0.1,0,0.1-0.2,0.2C5.4,11.6,5.3,11.6,5.2,11.6L5.2,11.6z M6.6,11
		L6.6,11l-0.4,0.2c-0.1,0.1-0.3,0.2-0.6,0.3l-0.1,0l0.3-0.1c0.2-0.1,0.3-0.2,0.4-0.3c0-0.1,0.2-0.2,0.3-0.3c0.2-0.1,0.3-0.2,0.3-0.2
		C6.8,10.8,6.8,10.9,6.6,11L6.6,11z M9.5,8c-0.5,0.2-1,0.4-1.4,0.7C7.8,8.8,7.6,8.9,7.5,8.9C7.5,8.9,7.6,8.8,8,8.5
		c0.2-0.1,0.5-0.3,0.8-0.4l0.6-0.2C9.4,7.9,9.5,7.9,9.5,8L9.5,8z M21.5,20.1c0.1,0.1,0.1,0.2,0,0.1c-0.2,0-0.3-0.1-0.5-0.3
		c-0.2-0.2-0.3-0.3-0.3-0.4c-0.1-0.2-0.1-0.4,0-0.4c0.1,0,0.1,0,0.2,0.1L21.5,20.1L21.5,20.1z M19.7,16.7c0.1,0.1,0.3,0.2,0.4,0.3
		c0.1,0.1,0.3,0.3,0.4,0.5c0.4,0.5,0.5,1,0.4,1.3l-0.1,0.1c-0.1,0-0.1-0.1-0.2-0.4c-0.1-0.4-0.2-0.7-0.3-1c-0.1-0.1-0.2-0.3-0.4-0.5
		c0,0-0.1-0.1-0.1-0.1C19.7,16.7,19.6,16.7,19.7,16.7L19.7,16.7z M18.3,15.8c0.1,0,0.3,0.1,0.6,0.3c0.3,0.2,0.5,0.4,0.6,0.5
		c0.1,0.1-0.1,0-0.7-0.4C18.5,15.9,18.3,15.8,18.3,15.8L18.3,15.8z M13.6,14c0.6,0,1.3,0.2,2.2,0.5c0.9,0.3,1.7,0.7,2.3,1
		c0.3,0.2,0.3,0.2,0.2,0.2c-0.1,0-0.4-0.1-0.8-0.3c-1-0.5-2.2-0.9-3.5-1.1c-1.5-0.1-2.3-0.2-2.3-0.2c0-0.1,0.1-0.1,0.3-0.2
		C12.4,13.9,12.9,13.9,13.6,14L13.6,14z M18.1,10.5c-0.4,0.2-0.8,0.3-1.2,0.3c-0.1,0-0.1,0,0-0.1c0-0.1,0.1-0.1,0.2-0.1l0.7-0.2
		l0.3-0.1l0.2,0C18.2,10.3,18.2,10.4,18.1,10.5L18.1,10.5z M17.7,9.3l0.6,0c0.1,0,0.1,0,0.1,0.1L17.7,9.3
		C17.7,9.4,17.6,9.3,17.7,9.3L17.7,9.3z M19.1,9.7c0,0.1-0.3,0.3-0.7,0.5c0-0.1,0-0.1-0.1-0.2C18.9,9.8,19.2,9.6,19.1,9.7L19.1,9.7z
		 M19,9.2c-0.2,0.1-0.4,0.1-0.5,0.1l-0.1-0.1c0,0,0,0,0-0.1c0.2,0,0.5-0.1,1-0.4l0.2,0l0,0C19.5,9,19.3,9.1,19,9.2L19,9.2z
		 M19.7,8.5c-0.2,0.2-0.7,0.4-1.3,0.4c-0.6,0-0.9,0-1-0.1c-0.1-0.1,0.1-0.2,0.4-0.3c0.4-0.2,0.7-0.3,1.1-0.3c0.4-0.1,0.6,0,0.8,0.1
		C19.8,8.2,19.8,8.3,19.7,8.5L19.7,8.5z M18.5,7.4l0.7,0c0.4,0,0.6,0.2,0.7,0.3c0,0.1,0,0.1-0.1,0.1c-0.1,0-0.2-0.1-0.3-0.2
		c-0.1-0.1-0.2-0.1-0.5-0.1l-0.5,0L18.5,7.4C18.5,7.4,18.5,7.4,18.5,7.4L18.5,7.4z M17.3,8.5c0.3-0.2,0.6-0.4,1-0.5
		c0.2-0.1,0.3,0,0.2,0.1c-0.5,0.2-0.8,0.3-1,0.4c-0.1,0.1-0.2,0.1-0.3,0.1C17.2,8.6,17.2,8.6,17.3,8.5L17.3,8.5z M11.1,7.2
		c0.7,0,1.6,0.2,2.5,0.5c0.5,0.2,1.2,0.5,2.1,0.9c0.9,0.4,1.5,0.6,1.9,0.6c0.1,0.1,0,0.1-0.1,0.1c-0.7,0-1.4-0.2-2.1-0.5l-1.9-0.9
		C12.7,7.7,11.9,7.4,11.1,7.2C11,7.2,11,7.2,11.1,7.2L11.1,7.2z M11.8,8.4c-0.4-0.3-0.6-0.5-0.6-0.5l0.3,0c0.2,0,0.4,0.1,0.6,0.2
		c1,0.6,1.7,1,2.1,1.1c0.6,0.2,1.3,0.5,2,0.9c0.2,0.1,0.2,0.3,0.2,0.6l0.1,0.3c0,0.1,0,0.2-0.2,0.1c-0.2,0-0.5-0.1-1-0.3
		c-0.5-0.2-0.9-0.4-1.1-0.5L11.8,8.4L11.8,8.4z M13.8,11.5l0.6-0.8c0-0.1,0-0.3-0.2-0.5c0.2,0.2,0.4,0.3,0.6,0.3
		c0.1,0,0,0.1-0.1,0.2L14,11.4c-0.2,0.2-0.4,0.4-0.5,0.6c-0.1,0.1-0.1,0.1-0.1,0.2c-0.2,0.3-0.3,0.4-0.2,0.3c0-0.1,0.1-0.2,0.3-0.4
		C13.5,11.8,13.7,11.7,13.8,11.5L13.8,11.5z M12,13.4c0.1,0,0.3-0.1,0.5-0.3l-0.4,0.4l-1.1,0.1L12,13.4L12,13.4z M4.9,17.2
		C5,17.2,5.1,17.1,5.2,17c1.1-0.6,2.2-1,3.2-1.2c0.1,0,0,0.1-0.2,0.2l-1.3,0.4c-0.5,0.2-1,0.4-1.4,0.6c-0.9,0.4-1.5,0.9-2,1.4
		C3.5,18.2,3.9,17.8,4.9,17.2L4.9,17.2z M3,20.8l-0.6,0.1l-0.6-0.1c-0.1-0.1-0.1-0.2-0.1-0.4c0.1-0.3,0.2-0.6,0.4-0.8
		c0.1-0.2,0.2-0.3,0.2-0.2c0,0.1,0,0.3-0.1,0.6c-0.1,0.2-0.1,0.4,0,0.5C2.3,20.7,2.6,20.8,3,20.8C3.1,20.8,3.1,20.8,3,20.8L3,20.8z
		 M3.1,20.4c-0.2,0-0.3-0.1-0.2-0.3c0,0,0.1,0,0.1,0c0.1,0.1,0.2,0.1,0.3,0.1c0.1,0,0.1,0,0,0.1H3.1L3.1,20.4z M6,19.7
		c-1.1,0.6-2,1-2.7,1.1c0.9-0.3,1.8-0.7,2.7-1.3c0.8-0.5,1.7-1.2,2.7-1.9C7.8,18.4,7,19.1,6,19.7L6,19.7z M8.2,17
		c-1,1-2.1,1.8-3.3,2.6c-0.9,0.5-1.5,0.7-1.8,0.5L2.9,20c-0.1-0.7,0.4-1.5,1.6-2.2c0.4-0.2,0.8-0.5,1.2-0.7c0.5-0.3,1.1-0.5,1.8-0.7
		c0.4-0.1,0.9-0.3,1.5-0.4l0.2,0C8.8,16.4,8.5,16.7,8.2,17L8.2,17z M21.3,20.7c-0.8-0.5-1.3-0.9-1.5-1.3c0-0.1,0-0.2,0.1-0.5
		c0.1-0.3,0.1-0.5,0.1-0.7c-0.1-0.3-0.3-0.7-0.7-1C19.1,17.1,19,17.1,19,17c-0.7-0.4-1.6-0.8-2.7-1c-1.2-0.3-2.4-0.4-3.5-0.5
		l-2.9,0.1l-0.8,0.1c-0.2,0-0.3,0-0.2-0.1c0-0.1,0.3-0.2,0.7-0.3c0.5-0.2,0.9-0.3,1.2-0.3c1-0.1,2.1-0.1,3.1,0
		c0.6,0.1,1.3,0.2,2.1,0.5c0.9,0.2,1.5,0.4,1.9,0.7c0.6,0.3,1.1,0.6,1.4,0.9c0.1,0.1,0.2,0.2,0.3,0.3c0.4,0.5,0.6,0.9,0.5,1.4
		c0,0.4,0,0.6,0.1,0.8c0.2,0.3,0.6,0.6,1.2,1.1c0.6,0.4,0.9,0.6,0.9,0.7C22.4,21.4,22,21.2,21.3,20.7L21.3,20.7z M22.9,21.6
		c-0.1,0-0.2-0.1-0.3-0.2c-0.1-0.1-0.1-0.2-0.1-0.2l0.2,0.1C23,21.6,23,21.7,22.9,21.6L22.9,21.6z"/>
	<path class="st1" d="M7.5,8.9c0,0,0.2-0.1,0.5-0.3C8.4,8.4,8.9,8.2,9.5,8c0-0.1,0-0.1-0.1-0.1L8.8,8.1C8.5,8.2,8.2,8.4,8,8.5
		C7.6,8.8,7.5,8.9,7.5,8.9L7.5,8.9z"/>
	<path class="st2" d="M6.7,9.3c0.1-0.2,0.1-0.3,0-0.3C6.5,9.2,6.3,9.4,6.1,9.9c-0.2,0.5-0.4,0.9-0.4,1c0,0.1,0,0.1,0,0.1
		c0.1,0,0.3-0.1,0.5-0.3c0.1-0.1,0.2-0.3,0.2-0.5C6.4,10,6.5,9.7,6.7,9.3L6.7,9.3z"/>
	<path class="st3" d="M14.4,10.3l0.4,0.2C14.7,10.4,14.5,10.3,14.4,10.3L14.4,10.3z"/>
	<path class="st4" d="M14.3,10.2l0.7,0.4c-0.1,0-0.1-0.1-0.2-0.1l-0.4-0.2C14.4,10.2,14.3,10.2,14.3,10.2L14.3,10.2z"/>
	<path class="st4" d="M14.2,10.2l0.9,0.5c-0.1,0-0.1,0-0.1-0.1L14.2,10.2L14.2,10.2L14.2,10.2L14.2,10.2z"/>
	<path class="st4" d="M14.2,10.1l1.1,0.6c0,0-0.1,0-0.1-0.1L14.2,10.1L14.2,10.1L14.2,10.1z"/>
	<polygon class="st5" points="14.1,10.1 15.4,10.7 15.3,10.7 15.3,10.7 14.2,10.1 14.1,10.1 	"/>
	<polygon class="st5" points="14.1,10 15.5,10.8 15.4,10.7 14.1,10.1 14.1,10 	"/>
	<path class="st6" d="M14,10l1.6,0.8c0,0-0.1,0-0.1,0L14,10L14,10L14,10z"/>
	<polygon class="st6" points="14,10 15.7,10.8 15.6,10.8 14,10 14,10 	"/>
	<polygon class="st6" points="13.9,9.9 15.8,10.9 15.7,10.8 14,10 13.9,9.9 	"/>
	<path class="st7" d="M13.9,9.9l2,1c0,0,0,0-0.1,0L13.9,9.9L13.9,9.9L13.9,9.9z"/>
	<path class="st7" d="M13.8,9.9l2.1,1c0,0,0,0-0.1,0L13.8,9.9L13.8,9.9L13.8,9.9z"/>
	<path class="st8" d="M13.8,9.8l2.2,1.1c0,0,0,0-0.1,0L13.8,9.8L13.8,9.8L13.8,9.8z"/>
	<path class="st8" d="M13.7,9.8l2.3,1.2c0,0,0,0-0.1,0L13.7,9.8L13.7,9.8L13.7,9.8z"/>
	<path class="st8" d="M13.7,9.8l2.4,1.2c0,0,0,0-0.1,0L13.7,9.8L13.7,9.8L13.7,9.8z"/>
	<path class="st9" d="M13.6,9.7l2.5,1.3c0,0,0,0-0.1,0L13.6,9.7L13.6,9.7L13.6,9.7z"/>
	<path class="st9" d="M13.6,9.7l2.6,1.3c0,0,0,0,0,0L13.6,9.7L13.6,9.7L13.6,9.7z"/>
	<path class="st10" d="M13.5,9.6l2.7,1.4c0,0,0,0,0,0L13.5,9.6L13.5,9.6L13.5,9.6z"/>
	<path class="st10" d="M13.5,9.6l2.8,1.4c0,0,0,0,0,0L13.5,9.6L13.5,9.6L13.5,9.6z"/>
	<path class="st10" d="M13.4,9.6l2.9,1.4c0,0,0,0,0,0L13.4,9.6L13.4,9.6L13.4,9.6z"/>
	<path class="st11" d="M13.4,9.5l3,1.5c0,0,0,0,0,0L13.4,9.5L13.4,9.5L13.4,9.5z"/>
	<path class="st11" d="M13.3,9.5l3,1.5c0,0,0,0,0,0L13.3,9.5L13.3,9.5L13.3,9.5z"/>
	<path class="st12" d="M13.2,9.5l3.1,1.6c0,0,0,0,0,0l0,0L13.2,9.5L13.2,9.5L13.2,9.5z"/>
	<path class="st12" d="M13.2,9.4l3.2,1.6c0,0,0,0,0,0L13.2,9.4L13.2,9.4L13.2,9.4z"/>
	<path class="st12" d="M13.1,9.4l3.3,1.6c0,0,0,0,0,0L13.1,9.4L13.1,9.4L13.1,9.4z"/>
	<path class="st13" d="M13.1,9.3l3.3,1.7c0,0,0,0,0,0L13.1,9.3L13.1,9.3L13.1,9.3z"/>
	<path class="st13" d="M13,9.3l3.4,1.7c0,0,0,0,0,0L13,9.3L13,9.3L13,9.3z"/>
	<path class="st13" d="M13,9.3l3.5,1.7c0,0,0,0,0,0L13,9.3L13,9.3L13,9.3z"/>
	<path class="st14" d="M12.9,9.2l3.5,1.8c0,0,0,0,0,0L12.9,9.2L12.9,9.2L12.9,9.2z"/>
	<polygon class="st14" points="12.9,9.2 16.5,11 16.5,11 12.9,9.2 12.9,9.2 	"/>
	<polygon class="st15" points="12.8,9.2 16.5,11 16.5,11 12.9,9.2 12.8,9.2 	"/>
	<polygon class="st15" points="12.8,9.1 16.5,11 16.5,11 12.8,9.2 12.8,9.1 	"/>
	<polygon class="st15" points="12.7,9.1 16.5,11 16.5,11 12.8,9.1 12.7,9.1 	"/>
	<polygon class="st16" points="12.7,9 16.5,11 16.5,11 12.7,9.1 12.7,9 	"/>
	<polygon class="st16" points="12.6,9 16.5,11 16.5,11 12.7,9 12.6,9 	"/>
	<polygon class="st17" points="12.6,9 16.5,10.9 16.5,11 12.6,9 12.6,9 	"/>
	<polygon class="st17" points="12.5,8.9 16.5,10.9 16.5,10.9 12.6,9 12.5,8.9 	"/>
	<polygon class="st17" points="12.5,8.9 16.5,10.9 16.5,10.9 12.5,8.9 12.5,8.9 	"/>
	<polygon class="st18" points="12.4,8.9 16.5,10.9 16.5,10.9 12.5,8.9 12.4,8.9 	"/>
	<polygon class="st18" points="12.4,8.8 16.5,10.9 16.5,10.9 12.4,8.9 12.4,8.8 	"/>
	<path class="st19" d="M12.3,8.8l4.2,2.1c0,0,0,0,0,0L12.3,8.8L12.3,8.8L12.3,8.8z"/>
	<path class="st19" d="M12.3,8.8l4.3,2.1c0,0,0,0,0,0L12.3,8.8L12.3,8.8L12.3,8.8z"/>
	<polygon class="st19" points="12.2,8.7 16.5,10.9 16.5,10.9 16.5,10.9 12.3,8.8 12.2,8.7 	"/>
	<polygon class="st20" points="12.2,8.7 16.5,10.9 16.5,10.9 12.2,8.7 12.2,8.7 	"/>
	<polygon class="st20" points="12.1,8.6 16.5,10.8 16.5,10.9 12.2,8.7 12.1,8.6 	"/>
	<polygon class="st21" points="12.1,8.6 16.5,10.8 16.5,10.8 12.1,8.6 12.1,8.6 	"/>
	<polygon class="st21" points="12,8.6 16.5,10.8 16.5,10.8 12.1,8.6 12,8.6 	"/>
	<polygon class="st21" points="12,8.5 16.5,10.8 16.5,10.8 12,8.6 12,8.5 	"/>
	<polygon class="st22" points="11.9,8.5 16.5,10.8 16.5,10.8 12,8.5 11.9,8.5 	"/>
	<polygon class="st22" points="11.9,8.5 16.5,10.8 16.5,10.8 11.9,8.5 11.9,8.5 	"/>
	<polygon class="st22" points="11.8,8.4 16.5,10.8 16.5,10.8 11.9,8.5 11.8,8.4 	"/>
	<polygon class="st23" points="11.7,8.4 16.5,10.7 16.5,10.8 11.8,8.4 11.8,8.4 11.7,8.4 	"/>
	<polygon class="st23" points="11.7,8.3 16.5,10.7 16.5,10.7 11.7,8.4 11.7,8.3 	"/>
	<polygon class="st24" points="11.7,8.3 16.4,10.7 16.5,10.7 11.7,8.3 11.7,8.3 	"/>
	<polygon class="st24" points="11.6,8.3 16.4,10.7 16.4,10.7 11.7,8.3 11.6,8.3 	"/>
	<polygon class="st24" points="11.6,8.2 16.4,10.7 16.4,10.7 11.6,8.3 11.6,8.2 	"/>
	<polygon class="st25" points="11.5,8.2 16.4,10.7 16.4,10.7 11.6,8.2 11.5,8.2 	"/>
	<polygon class="st25" points="11.5,8.2 16.4,10.7 16.4,10.7 11.5,8.2 11.5,8.2 	"/>
	<polygon class="st26" points="11.4,8.2 16.4,10.6 16.4,10.7 11.5,8.2 11.4,8.2 	"/>
	<polygon class="st26" points="11.4,8.1 16.4,10.6 16.4,10.6 11.4,8.2 11.4,8.1 	"/>
	<polygon class="st26" points="11.4,8.1 16.4,10.6 16.4,10.6 11.4,8.1 11.4,8.1 	"/>
	<polygon class="st27" points="11.3,8.1 16.4,10.6 16.4,10.6 11.4,8.1 11.3,8.1 	"/>
	<path class="st27" d="M11.3,8l5.1,2.5l0,0L11.3,8C11.3,8.1,11.3,8,11.3,8L11.3,8z"/>
	<path class="st28" d="M11.3,8l5.1,2.6l0,0L11.3,8C11.3,8,11.3,8,11.3,8L11.3,8z"/>
	<path class="st28" d="M11.3,8l5.1,2.6l0,0L11.3,8C11.3,8,11.3,8,11.3,8L11.3,8z"/>
	<path class="st28" d="M11.2,8l5.1,2.6l0,0l0,0L11.2,8C11.2,8,11.2,8,11.2,8L11.2,8z"/>
	<path class="st29" d="M11.2,7.9l5.2,2.6l0,0L11.2,7.9C11.2,8,11.2,8,11.2,7.9L11.2,7.9z"/>
	<path class="st29" d="M11.2,7.9l5.2,2.6l0,0L11.2,7.9C11.2,7.9,11.2,7.9,11.2,7.9L11.2,7.9z"/>
	<path class="st30" d="M11.2,7.9l5.2,2.6l0,0L11.2,7.9C11.2,7.9,11.2,7.9,11.2,7.9L11.2,7.9z"/>
	<path class="st30" d="M11.2,7.9l5.2,2.6l0,0L11.2,7.9C11.2,7.9,11.2,7.9,11.2,7.9L11.2,7.9z"/>
	<path class="st30" d="M11.2,7.9l5.2,2.6l0,0L11.2,7.9C11.2,7.9,11.2,7.9,11.2,7.9L11.2,7.9z"/>
	<polygon class="st31" points="11.2,7.9 16.4,10.5 16.4,10.5 11.2,7.9 11.2,7.9 	"/>
	<polygon class="st31" points="11.2,7.9 16.4,10.5 16.4,10.5 11.2,7.9 11.2,7.9 11.2,7.9 	"/>
	<polygon class="st32" points="11.2,7.9 16.4,10.4 16.4,10.5 11.2,7.9 11.2,7.9 	"/>
	<polygon class="st32" points="11.2,7.9 16.4,10.4 16.4,10.4 11.2,7.9 11.2,7.9 	"/>
	<polygon class="st32" points="11.3,7.9 16.4,10.4 16.4,10.4 11.2,7.9 11.3,7.9 	"/>
	<polygon class="st33" points="11.3,7.9 16.4,10.4 16.4,10.4 11.3,7.9 11.3,7.9 	"/>
	<polygon class="st33" points="11.3,7.9 16.4,10.4 16.4,10.4 11.3,7.9 11.3,7.9 	"/>
	<polygon class="st33" points="11.3,7.9 16.4,10.4 16.4,10.4 11.3,7.9 11.3,7.9 	"/>
	<polygon class="st34" points="11.3,7.9 16.4,10.4 16.4,10.4 11.3,7.9 11.3,7.9 	"/>
	<polygon class="st34" points="11.3,7.9 16.4,10.4 16.4,10.4 11.3,7.9 11.3,7.9 	"/>
	<polygon class="st35" points="11.4,7.9 16.4,10.4 16.4,10.4 11.3,7.9 11.4,7.9 	"/>
	<polygon class="st35" points="11.4,7.9 16.4,10.3 16.4,10.4 11.4,7.9 11.4,7.9 	"/>
	<polygon class="st35" points="11.4,7.9 16.4,10.3 16.4,10.3 11.4,7.9 11.4,7.9 	"/>
	<polygon class="st36" points="11.4,7.8 16.4,10.3 16.4,10.3 11.4,7.9 11.4,7.8 	"/>
	<polygon class="st36" points="11.4,7.8 16.4,10.3 16.4,10.3 11.4,7.8 11.4,7.8 	"/>
	<polygon class="st37" points="11.5,7.8 16.3,10.3 16.4,10.3 11.4,7.8 11.5,7.8 	"/>
	<polygon class="st37" points="11.5,7.8 16.3,10.3 16.3,10.3 11.5,7.8 11.5,7.8 	"/>
	<polygon class="st37" points="11.5,7.8 16.3,10.3 16.3,10.3 11.5,7.8 11.5,7.8 11.5,7.8 	"/>
	<polygon class="st38" points="11.5,7.8 16.3,10.3 16.3,10.3 11.5,7.8 11.5,7.8 	"/>
	<polygon class="st38" points="11.5,7.8 16.3,10.2 16.3,10.3 11.5,7.8 11.5,7.8 	"/>
	<polygon class="st39" points="11.6,7.8 16.3,10.2 16.3,10.2 11.5,7.8 11.6,7.8 	"/>
	<polygon class="st39" points="11.6,7.8 16.3,10.2 16.3,10.2 11.6,7.8 11.6,7.8 	"/>
	<polygon class="st39" points="11.6,7.8 16.3,10.2 16.3,10.2 11.6,7.8 11.6,7.8 	"/>
	<polygon class="st40" points="11.6,7.9 16.3,10.2 16.3,10.2 11.6,7.8 11.6,7.9 	"/>
	<path class="st40" d="M11.7,7.9l2,1c0,0,0.1,0,0.1,0.1l2.5,1.3l0,0L11.7,7.9L11.7,7.9L11.7,7.9z"/>
	<path class="st41" d="M11.7,7.9l1.5,0.7c0.2,0.1,0.3,0.2,0.5,0.2L11.7,7.9C11.7,7.9,11.7,7.9,11.7,7.9L11.7,7.9z M14.1,9l2.2,1.1
		l0,0l-2.5-1.3C13.9,9,14,9,14.1,9L14.1,9z"/>
	<path class="st41" d="M11.7,7.9l1.2,0.6c0.1,0,0.2,0.1,0.3,0.1L11.7,7.9C11.7,7.9,11.7,7.9,11.7,7.9L11.7,7.9z M14.2,9.1l2.1,1.1
		l0,0L14.1,9C14.1,9.1,14.1,9.1,14.2,9.1L14.2,9.1L14.2,9.1z"/>
	<path class="st41" d="M11.8,7.9l0.9,0.5c0.1,0,0.1,0.1,0.2,0.1L11.8,7.9C11.8,7.9,11.8,7.9,11.8,7.9L11.8,7.9z M14.3,9.1l2,1l0,0
		l-2.1-1.1C14.2,9.1,14.3,9.1,14.3,9.1L14.3,9.1z"/>
	<path class="st42" d="M11.8,7.9l0.7,0.4c0.1,0,0.1,0.1,0.2,0.1L11.8,7.9C11.8,7.9,11.8,7.9,11.8,7.9L11.8,7.9z M14.4,9.2l1.9,0.9
		l0,0l-2-1L14.4,9.2L14.4,9.2z"/>
	<path class="st42" d="M11.9,7.9l0.5,0.2c0.1,0,0.1,0.1,0.2,0.1L11.9,7.9C11.8,7.9,11.9,7.9,11.9,7.9L11.9,7.9z M14.5,9.2l1.7,0.9
		l0,0l-1.9-0.9L14.5,9.2L14.5,9.2z"/>
	<path class="st42" d="M11.9,7.9l0.3,0.1l0.2,0.1L11.9,7.9C11.9,7.9,11.9,7.9,11.9,7.9L11.9,7.9z M14.7,9.3l1.6,0.8c0,0,0,0,0,0
		l-1.7-0.9C14.6,9.3,14.6,9.3,14.7,9.3L14.7,9.3z"/>
	<path class="st43" d="M14.8,9.4l1.4,0.7c0,0,0,0,0,0l-1.6-0.8C14.7,9.3,14.8,9.3,14.8,9.4L14.8,9.4z M12.2,8.1l-0.3-0.1
		C12,7.9,12.1,8,12.2,8.1L12.2,8.1L12.2,8.1z"/>
	<path class="st43" d="M15,9.4l1.2,0.6c0,0,0,0,0,0l-1.4-0.7C14.9,9.4,14.9,9.4,15,9.4L15,9.4z"/>
	<path class="st44" d="M15.2,9.5l1,0.5c0,0,0,0,0,0L15,9.4C15.1,9.5,15.1,9.5,15.2,9.5L15.2,9.5z"/>
	<path class="st44" d="M15.5,9.7l0.7,0.3c0,0,0,0,0,0l-1-0.5C15.3,9.6,15.4,9.6,15.5,9.7L15.5,9.7z"/>
	<path class="st44" d="M16.2,10l-0.7-0.3C15.7,9.8,15.9,9.9,16.2,10C16.2,10,16.2,10,16.2,10L16.2,10z"/>
	<path class="st2" d="M11.1,7.2C11,7.2,11,7.2,11.1,7.2c0.8,0.2,1.6,0.5,2.4,0.9l1.9,0.9c0.7,0.3,1.3,0.4,2.1,0.5
		c0.2,0,0.2,0,0.1-0.1c-0.4,0-1-0.3-1.9-0.6c-0.9-0.4-1.6-0.7-2.1-0.9C12.7,7.4,11.9,7.2,11.1,7.2L11.1,7.2z"/>
	<path class="st14" d="M5.3,11.4c-0.1,0-0.1,0.1-0.1,0.1c0,0,0.2,0,0.5-0.2c0.1,0,0.2-0.1,0.2-0.2c0-0.1-0.1,0-0.2,0L5.3,11.4
		L5.3,11.4z"/>
	<path class="st45" d="M5.4,11.6l0.1,0c0.3-0.1,0.5-0.2,0.6-0.3L6.6,11c0.2-0.1,0.3-0.2,0.2-0.3c0,0-0.1,0-0.3,0.2
		c-0.2,0.1-0.3,0.2-0.3,0.3c0,0.1-0.2,0.2-0.4,0.3L5.4,11.6L5.4,11.6L5.4,11.6z"/>
	<path class="st45" d="M5.1,11.7c0-0.1,0-0.2,0-0.2c0,0-0.1,0-0.4,0.1l-0.4,0.2c-0.1,0.1,0,0.1,0.1,0.1l0.5-0.1L5.1,11.7
		C5.1,11.7,5.1,11.7,5.1,11.7L5.1,11.7z"/>
	<path class="st46" d="M8.2,16c0.3-0.1,0.4-0.2,0.2-0.2c-1.1,0.2-2.3,0.7-3.5,1.4c-0.9,0.5-1.4,1-1.4,1.2c0.7-0.8,1.8-1.5,3.4-2
		L8.2,16L8.2,16z"/>
	<path class="st13" d="M22.2,21.2l0.2,0.1C22.3,21.3,22.3,21.3,22.2,21.2L22.2,21.2z"/>
	<path class="st13" d="M22,21.1l0.3,0.1c0,0,0,0,0,0c0,0,0,0,0,0l-0.2-0.1C22.1,21.2,22.1,21.2,22,21.1L22,21.1z"/>
	<path class="st14" d="M21.9,21.1l0.4,0.1c0,0,0,0,0.1,0L22,21.1C22,21.1,21.9,21.1,21.9,21.1L21.9,21.1z"/>
	<path class="st14" d="M21.7,21l0.4,0.2c0,0,0,0,0.1,0.1l-0.4-0.1C21.8,21,21.8,21,21.7,21L21.7,21z"/>
	<path class="st15" d="M21.6,20.9l0.5,0.2c0,0,0,0,0.1,0.1L21.7,21L21.6,20.9L21.6,20.9z"/>
	<path class="st15" d="M21.5,20.8L22,21c0,0,0,0,0.1,0.1l-0.5-0.2L21.5,20.8L21.5,20.8z"/>
	<path class="st15" d="M21.4,20.8L22,21c0,0,0.1,0,0.1,0.1l-0.5-0.2L21.4,20.8L21.4,20.8z"/>
	<polygon class="st16" points="21.3,20.7 21.9,20.9 22,21 21.4,20.8 21.3,20.7 21.3,20.7 	"/>
	<path class="st16" d="M21.2,20.6l0.6,0.2l0.1,0.1l-0.6-0.2C21.2,20.7,21.2,20.7,21.2,20.6L21.2,20.6z"/>
	<path class="st17" d="M21.1,20.6l0.7,0.3l0.1,0.1l-0.6-0.2C21.1,20.6,21.1,20.6,21.1,20.6L21.1,20.6z"/>
	<path class="st17" d="M21,20.5l0.7,0.3l0.1,0.1L21,20.5C21,20.5,21,20.5,21,20.5L21,20.5z"/>
	<path class="st17" d="M20.9,20.4l0.7,0.3l0.1,0.1L20.9,20.4C20.9,20.5,20.9,20.5,20.9,20.4L20.9,20.4z"/>
	<path class="st18" d="M20.8,20.4l0.7,0.3l0.1,0.1L20.8,20.4C20.8,20.4,20.8,20.4,20.8,20.4L20.8,20.4z"/>
	<path class="st18" d="M8.9,15.8L8.9,15.8C8.9,15.8,8.9,15.8,8.9,15.8L8.9,15.8z M20.7,20.3l0.7,0.3l0,0l0.1,0.1L20.7,20.3
		C20.8,20.4,20.7,20.3,20.7,20.3L20.7,20.3z"/>
	<path class="st19" d="M8.8,15.8L9,15.8C9,15.8,8.9,15.8,8.8,15.8L8.8,15.8C8.9,15.8,8.9,15.8,8.8,15.8L8.8,15.8z M20.6,20.3
		l0.7,0.3l0.1,0.1L20.6,20.3C20.7,20.3,20.7,20.3,20.6,20.3L20.6,20.3z"/>
	<path class="st19" d="M8.9,15.7l0.2,0.1c0,0,0,0-0.1,0L8.9,15.7C8.8,15.8,8.8,15.8,8.9,15.7L8.9,15.7z M20.6,20.2l0.7,0.3l0.1,0.1
		L20.6,20.2C20.6,20.2,20.6,20.2,20.6,20.2L20.6,20.2z"/>
	<path class="st19" d="M8.9,15.7l0.3,0.1l0,0l0,0L8.9,15.7C8.9,15.7,8.9,15.7,8.9,15.7L8.9,15.7L8.9,15.7z M20.5,20.2l0.7,0.3
		l0.1,0.1L20.5,20.2C20.6,20.2,20.5,20.2,20.5,20.2L20.5,20.2z"/>
	<path class="st20" d="M8.9,15.7l0.3,0.1l-0.1,0L8.9,15.7C8.9,15.7,8.9,15.7,8.9,15.7L8.9,15.7z M20.4,20.1l0.7,0.3l0.1,0.1
		L20.4,20.1C20.5,20.1,20.5,20.1,20.4,20.1L20.4,20.1z"/>
	<path class="st20" d="M8.9,15.7l0.3,0.1l-0.1,0L8.9,15.7C8.9,15.7,8.9,15.7,8.9,15.7L8.9,15.7z M20.4,20.1l0.7,0.3l0.1,0.1
		L20.4,20.1C20.4,20.1,20.4,20.1,20.4,20.1L20.4,20.1z"/>
	<path class="st21" d="M8.9,15.7l0.3,0.1l-0.1,0L8.9,15.7C8.9,15.7,8.9,15.7,8.9,15.7L8.9,15.7z M20.3,20l0.7,0.3l0.1,0.1L20.3,20
		C20.4,20,20.4,20,20.3,20L20.3,20z"/>
	<path class="st21" d="M9,15.7l0.4,0.1l-0.1,0L9,15.7C8.9,15.7,8.9,15.7,9,15.7L9,15.7z M20.3,20l0.7,0.3l0.1,0L20.3,20
		C20.3,20,20.3,20,20.3,20L20.3,20z"/>
	<path class="st21" d="M9,15.6l0.4,0.1l-0.1,0L9,15.6C9,15.6,9,15.6,9,15.6L9,15.6z M20.2,19.9l0.7,0.3c0,0,0,0,0.1,0L20.2,19.9
		C20.3,20,20.3,19.9,20.2,19.9L20.2,19.9z"/>
	<path class="st22" d="M9,15.6l0.4,0.2l-0.1,0L9,15.6C9,15.6,9,15.6,9,15.6L9,15.6z M20.2,19.9l0.7,0.3l0.1,0L20.2,19.9
		C20.2,19.9,20.2,19.9,20.2,19.9L20.2,19.9z"/>
	<path class="st22" d="M9,15.6l0.4,0.2l-0.1,0L9,15.6L9,15.6L9,15.6z M20.2,19.8l0.6,0.2l0.1,0L20.2,19.8
		C20.2,19.9,20.2,19.9,20.2,19.8L20.2,19.8z"/>
	<path class="st22" d="M9.1,15.6l0.5,0.2l-0.1,0L9.1,15.6L9.1,15.6L9.1,15.6z M20.1,19.8l0.6,0.2l0.1,0L20.1,19.8
		C20.1,19.8,20.1,19.8,20.1,19.8L20.1,19.8z"/>
	<path class="st23" d="M9.1,15.6l0.5,0.2l-0.1,0L9.1,15.6L9.1,15.6L9.1,15.6z M20.1,19.8l0.6,0.2l0.1,0L20.1,19.8
		C20.1,19.8,20.1,19.8,20.1,19.8L20.1,19.8z"/>
	<path class="st23" d="M9.1,15.6l0.5,0.2l-0.1,0L9.1,15.6L9.1,15.6L9.1,15.6z M20,19.7l0.6,0.2c0,0,0,0,0.1,0L20,19.7
		C20.1,19.7,20.1,19.7,20,19.7L20,19.7z"/>
	<path class="st24" d="M9.2,15.5l0.5,0.2l-0.1,0L9.2,15.5L9.2,15.5L9.2,15.5z M20,19.7l0.6,0.2c0,0,0,0,0,0L20,19.7
		C20,19.7,20,19.7,20,19.7L20,19.7z"/>
	<path class="st24" d="M9.2,15.5l0.5,0.2l-0.1,0L9.2,15.5L9.2,15.5L9.2,15.5z M20,19.6l0.6,0.2l0,0L20,19.6C20,19.7,20,19.7,20,19.6
		L20,19.6z"/>
	<path class="st24" d="M9.2,15.5l0.5,0.2l-0.1,0L9.2,15.5L9.2,15.5L9.2,15.5z M20,19.6l0.5,0.2l0,0L20,19.6C20,19.6,20,19.6,20,19.6
		L20,19.6z"/>
	<path class="st25" d="M9.3,15.5l0.6,0.2l0,0L9.3,15.5L9.3,15.5L9.3,15.5z M19.9,19.6l0.5,0.2c0,0,0,0,0,0L19.9,19.6
		C19.9,19.6,19.9,19.6,19.9,19.6L19.9,19.6z"/>
	<path class="st25" d="M9.3,15.5l0.6,0.2l-0.1,0L9.3,15.5L9.3,15.5L9.3,15.5z M19.9,19.5l0.5,0.2c0,0,0,0,0,0L19.9,19.5
		C19.9,19.6,19.9,19.5,19.9,19.5L19.9,19.5z"/>
	<path class="st26" d="M9.3,15.5l0.6,0.2l-0.1,0L9.3,15.5L9.3,15.5L9.3,15.5z M19.9,19.5l0.5,0.2c0,0,0,0,0,0L19.9,19.5
		C19.9,19.5,19.9,19.5,19.9,19.5L19.9,19.5z"/>
	<path class="st26" d="M9.4,15.5l0.6,0.2l-0.1,0l0,0L9.4,15.5L9.4,15.5L9.4,15.5z M19.9,19.5l0.5,0.2c0,0,0,0,0,0L19.9,19.5
		C19.9,19.5,19.9,19.5,19.9,19.5L19.9,19.5z"/>
	<path class="st26" d="M9.4,15.5l0.6,0.2l-0.1,0L9.4,15.5L9.4,15.5L9.4,15.5z M19.8,19.4l0.5,0.2c0,0,0,0,0,0L19.8,19.4
		C19.8,19.4,19.8,19.4,19.8,19.4L19.8,19.4z"/>
	<path class="st27" d="M9.4,15.4l0.7,0.3l-0.1,0L9.4,15.4L9.4,15.4L9.4,15.4z M19.8,19.4l0.4,0.2c0,0,0,0,0,0L19.8,19.4
		C19.8,19.4,19.8,19.4,19.8,19.4L19.8,19.4z"/>
	<path class="st27" d="M9.5,15.4l0.7,0.3l-0.1,0L9.5,15.4L9.5,15.4L9.5,15.4z M19.8,19.4l0.4,0.2c0,0,0,0,0,0L19.8,19.4L19.8,19.4
		C19.8,19.4,19.8,19.4,19.8,19.4L19.8,19.4z"/>
	<path class="st28" d="M9.5,15.4l0.7,0.3l-0.1,0L9.5,15.4L9.5,15.4L9.5,15.4z M19.8,19.3l0.4,0.2l0,0c0,0,0,0,0,0L19.8,19.3
		C19.8,19.3,19.8,19.3,19.8,19.3L19.8,19.3z"/>
	<path class="st28" d="M9.5,15.4l0.7,0.3l-0.1,0L9.5,15.4L9.5,15.4L9.5,15.4z M19.8,19.3l0.4,0.1c0,0,0,0,0,0L19.8,19.3
		C19.8,19.3,19.8,19.3,19.8,19.3L19.8,19.3z"/>
	<path class="st28" d="M9.6,15.4l0.8,0.3l-0.1,0L9.6,15.4L9.6,15.4L9.6,15.4L9.6,15.4z M19.8,19.3l0.4,0.1c0,0,0,0,0,0L19.8,19.3
		C19.8,19.3,19.8,19.3,19.8,19.3L19.8,19.3z"/>
	<path class="st29" d="M9.6,15.4l0.8,0.3l-0.1,0L9.6,15.4L9.6,15.4L9.6,15.4z M19.8,19.2l0.3,0.1c0,0,0,0,0,0L19.8,19.2
		C19.8,19.3,19.8,19.3,19.8,19.2L19.8,19.2z"/>
	<path class="st29" d="M9.7,15.4l0.8,0.3l-0.1,0L9.7,15.4L9.7,15.4L9.7,15.4z M19.8,19.2l0.3,0.1c0,0,0,0,0,0L19.8,19.2
		C19.8,19.2,19.8,19.2,19.8,19.2L19.8,19.2z"/>
	<path class="st30" d="M9.7,15.3l0.9,0.3l-0.1,0L9.7,15.3L9.7,15.3L9.7,15.3z M19.8,19.2l0.3,0.1c0,0,0,0,0,0L19.8,19.2
		C19.8,19.2,19.8,19.2,19.8,19.2L19.8,19.2z"/>
	<path class="st30" d="M9.7,15.3l0.9,0.3l-0.1,0L9.7,15.3L9.7,15.3L9.7,15.3z M19.8,19.2l0.3,0.1c0,0,0,0,0,0L19.8,19.2L19.8,19.2
		L19.8,19.2z"/>
	<path class="st30" d="M9.8,15.3l0.9,0.3l-0.1,0L9.8,15.3L9.8,15.3L9.8,15.3z M19.8,19.1l0.3,0.1c0,0,0,0,0,0L19.8,19.1L19.8,19.1
		L19.8,19.1z"/>
	<path class="st31" d="M9.8,15.3l0.9,0.4l-0.1,0L9.8,15.3L9.8,15.3L9.8,15.3z M19.8,19.1l0.3,0.1c0,0,0,0,0,0L19.8,19.1L19.8,19.1
		L19.8,19.1z"/>
	<path class="st31" d="M9.8,15.3l1,0.4l-0.1,0L9.8,15.3L9.8,15.3L9.8,15.3z M19.8,19.1l0.3,0.1c0,0,0,0,0,0L19.8,19.1L19.8,19.1
		L19.8,19.1z"/>
	<path class="st32" d="M9.9,15.3l1,0.4l-0.1,0L9.9,15.3L9.9,15.3L9.9,15.3z M19.8,19.1l0.3,0.1c0,0,0,0,0,0L19.8,19.1L19.8,19.1
		L19.8,19.1z"/>
	<path class="st32" d="M9.9,15.3l1,0.4l-0.1,0L9.9,15.3L9.9,15.3L9.9,15.3z M19.8,19l0.3,0.1c0,0,0,0,0,0L19.8,19L19.8,19L19.8,19z"
		/>
	<path class="st32" d="M10,15.3l1,0.4l-0.1,0L10,15.3L10,15.3L10,15.3z M19.8,19l0.2,0.1l0,0L19.8,19L19.8,19L19.8,19z"/>
	<path class="st33" d="M10,15.2l1.1,0.4l-0.1,0L10,15.2L10,15.2L10,15.2z M19.8,19l0.2,0.1l0,0L19.8,19L19.8,19L19.8,19z"/>
	<path class="st33" d="M10,15.2l1.1,0.4l-0.1,0L10,15.2L10,15.2L10,15.2z M19.8,19l0.2,0.1l0,0L19.8,19L19.8,19L19.8,19z"/>
	<path class="st33" d="M10.1,15.2l1.1,0.4l-0.1,0L10.1,15.2L10.1,15.2L10.1,15.2z M19.9,18.9l0.2,0.1l0,0L19.9,18.9L19.9,18.9
		L19.9,18.9z"/>
	<path class="st34" d="M10.1,15.2l1.1,0.4l-0.1,0L10.1,15.2L10.1,15.2L10.1,15.2z M19.9,18.9l0.2,0.1l0,0L19.9,18.9L19.9,18.9
		L19.9,18.9z"/>
	<path class="st34" d="M10.1,15.2l1.2,0.4l-0.1,0L10.1,15.2L10.1,15.2L10.1,15.2z M19.9,18.9l0.2,0.1l0,0L19.9,18.9L19.9,18.9
		L19.9,18.9L19.9,18.9z"/>
	<path class="st35" d="M10.2,15.2l1.2,0.5l-0.1,0L10.2,15.2L10.2,15.2L10.2,15.2z M19.9,18.9l0.2,0.1l0,0L19.9,18.9L19.9,18.9
		L19.9,18.9z"/>
	<path class="st35" d="M10.2,15.2l1.2,0.5l-0.1,0L10.2,15.2L10.2,15.2L10.2,15.2z M19.9,18.9l0.2,0.1l0,0L19.9,18.9L19.9,18.9
		L19.9,18.9z"/>
	<path class="st35" d="M10.3,15.2l1.2,0.5l-0.1,0L10.3,15.2L10.3,15.2L10.3,15.2z M19.9,18.8l0.2,0.1l0,0L19.9,18.8L19.9,18.8
		L19.9,18.8z"/>
	<path class="st36" d="M10.3,15.2l1.3,0.5l-0.1,0L10.3,15.2L10.3,15.2L10.3,15.2z M19.9,18.8l0.2,0.1l0,0L19.9,18.8L19.9,18.8
		L19.9,18.8z"/>
	<path class="st36" d="M10.3,15.1l1.3,0.5l-0.1,0L10.3,15.1L10.3,15.1L10.3,15.1z M19.9,18.8l0.2,0.1l0,0L19.9,18.8L19.9,18.8
		L19.9,18.8z"/>
	<path class="st37" d="M10.4,15.1l1.3,0.5l-0.1,0L10.4,15.1L10.4,15.1L10.4,15.1z M19.9,18.8l0.2,0.1l0,0L19.9,18.8L19.9,18.8
		L19.9,18.8z"/>
	<path class="st37" d="M10.4,15.1l1.3,0.5l-0.1,0L10.4,15.1L10.4,15.1L10.4,15.1z M19.9,18.7l0.2,0.1l0,0L19.9,18.7L19.9,18.7
		L19.9,18.7z"/>
	<path class="st37" d="M10.5,15.1l1.3,0.5l-0.1,0L10.5,15.1L10.5,15.1L10.5,15.1z M19.9,18.7l0.2,0.1l0,0L19.9,18.7L19.9,18.7
		L19.9,18.7z"/>
	<path class="st38" d="M10.5,15.1l1.4,0.5l-0.1,0L10.5,15.1L10.5,15.1L10.5,15.1z M19.9,18.7l0.2,0.1l0,0L19.9,18.7L19.9,18.7
		L19.9,18.7z"/>
	<path class="st38" d="M10.6,15.1l1.4,0.5l-0.1,0L10.6,15.1L10.6,15.1L10.6,15.1z M19.9,18.7l0.2,0.1l0,0l0,0L19.9,18.7L19.9,18.7
		L19.9,18.7z"/>
	<path class="st39" d="M10.6,15.1l1.4,0.5l-0.1,0L10.6,15.1L10.6,15.1L10.6,15.1z M19.9,18.6l0.2,0.1l0,0L19.9,18.6L19.9,18.6
		L19.9,18.6z"/>
	<path class="st39" d="M10.7,15.1l1.4,0.5l-0.1,0L10.7,15.1C10.6,15.1,10.6,15.1,10.7,15.1L10.7,15.1z M19.9,18.6l0.2,0.1l0,0
		L19.9,18.6L19.9,18.6L19.9,18.6z"/>
	<path class="st39" d="M10.7,15.1l1.4,0.5l-0.1,0L10.7,15.1C10.7,15.1,10.7,15.1,10.7,15.1L10.7,15.1z M19.9,18.6l0.1,0.1l0,0
		L19.9,18.6L19.9,18.6L19.9,18.6z"/>
	<path class="st40" d="M10.8,15.1l1.4,0.5l-0.1,0L10.8,15.1L10.8,15.1L10.8,15.1L10.8,15.1z M19.9,18.6l0.1,0.1l0,0L19.9,18.6
		L19.9,18.6L19.9,18.6z"/>
	<path class="st40" d="M10.8,15l1.4,0.5l-0.1,0L10.8,15L10.8,15L10.8,15z M20,18.5l0.1,0.1l0,0L20,18.5L20,18.5L20,18.5z"/>
	<path class="st41" d="M10.9,15l1.4,0.6l-0.1,0L10.9,15L10.9,15L10.9,15z M20,18.5l0.1,0.1l0,0L20,18.5L20,18.5L20,18.5z"/>
	<path class="st41" d="M10.9,15l1.5,0.6l-0.1,0L10.9,15L10.9,15L10.9,15z M20,18.5l0.1,0.1c0,0,0,0,0,0L20,18.5L20,18.5L20,18.5z"/>
	<path class="st41" d="M11,15l1.5,0.6l-0.1,0L11,15L11,15L11,15z M20,18.5l0.1,0.1l0,0L20,18.5L20,18.5L20,18.5z"/>
	<path class="st42" d="M11,15l1.5,0.6l-0.1,0L11,15L11,15L11,15z M20,18.4l0.1,0.1l0,0L20,18.4L20,18.4L20,18.4z"/>
	<path class="st42" d="M11.1,15l1.5,0.6l-0.1,0L11.1,15L11.1,15L11.1,15z M20,18.4l0.1,0.1l0,0L20,18.4L20,18.4L20,18.4z"/>
	<path class="st42" d="M11.1,15l1.5,0.6l-0.1,0L11.1,15L11.1,15L11.1,15z M20,18.4l0.1,0.1c0,0,0,0,0,0L20,18.4L20,18.4L20,18.4z"/>
	<path class="st43" d="M11.2,15l1.5,0.6l-0.1,0L11.2,15L11.2,15L11.2,15z M20,18.3l0.1,0.1l0,0L20,18.3L20,18.3L20,18.3z"/>
	<path class="st43" d="M11.3,15l1.5,0.6l-0.1,0L11.3,15L11.3,15L11.3,15z M20,18.3l0.1,0l0,0L20,18.3C20,18.3,20,18.3,20,18.3
		L20,18.3z"/>
	<path class="st44" d="M11.3,15l1.5,0.6l-0.1,0L11.3,15L11.3,15L11.3,15z M20,18.3l0.1,0l0,0L20,18.3C20,18.3,20,18.3,20,18.3
		L20,18.3z"/>
	<path class="st44" d="M11.4,15l1.5,0.6l0,0l0,0L11.4,15L11.4,15L11.4,15z M19.9,18.3l0.1,0l0,0L19.9,18.3
		C20,18.3,19.9,18.3,19.9,18.3L19.9,18.3z"/>
	<path class="st44" d="M11.4,15l1.5,0.6l-0.1,0L11.4,15L11.4,15L11.4,15z M19.9,18.2l0.1,0c0,0,0,0,0,0L19.9,18.2
		C19.9,18.3,19.9,18.2,19.9,18.2L19.9,18.2z"/>
	<path class="st47" d="M11.5,15l1.6,0.6l-0.1,0L11.5,15L11.5,15L11.5,15z M19.9,18.2l0.1,0l0,0L19.9,18.2
		C19.9,18.2,19.9,18.2,19.9,18.2L19.9,18.2z"/>
	<path class="st47" d="M11.5,15l1.6,0.6l-0.1,0L11.5,15L11.5,15L11.5,15z M19.9,18.2l0.1,0l0,0L19.9,18.2
		C19.9,18.2,19.9,18.2,19.9,18.2L19.9,18.2L19.9,18.2z"/>
	<path class="st48" d="M11.6,15l1.6,0.6l-0.1,0L11.6,15L11.6,15L11.6,15z M19.9,18.1l0.1,0l0,0L19.9,18.1
		C19.9,18.2,19.9,18.2,19.9,18.1L19.9,18.1z"/>
	<path class="st48" d="M11.7,15l1.6,0.6l-0.1,0L11.7,15L11.7,15L11.7,15z M19.9,18.1l0.1,0l0,0L19.9,18.1
		C19.9,18.1,19.9,18.1,19.9,18.1L19.9,18.1z"/>
	<path class="st48" d="M11.7,15l1.7,0.6l-0.1,0L11.7,15L11.7,15L11.7,15z M19.9,18.1l0.1,0l0,0L19.9,18.1
		C19.9,18.1,19.9,18.1,19.9,18.1L19.9,18.1z"/>
	<path class="st49" d="M11.8,15l1.7,0.6l-0.1,0L11.8,15L11.8,15L11.8,15z M19.9,18.1l0.1,0l0,0L19.9,18.1
		C19.9,18.1,19.9,18.1,19.9,18.1L19.9,18.1z"/>
	<path class="st50" d="M11.9,15l1.7,0.7l-0.1,0L11.9,15L11.9,15L11.9,15z M19.9,18l0.1,0l0,0L19.9,18C19.9,18,19.9,18,19.9,18
		L19.9,18z"/>
	<path class="st50" d="M11.9,15l1.7,0.7l-0.1,0L11.9,15L11.9,15L11.9,15z M19.9,18l0.1,0l0,0L19.9,18C19.9,18,19.9,18,19.9,18
		L19.9,18z"/>
	<path class="st50" d="M12,15l1.8,0.7l-0.1,0L12,15L12,15L12,15z M19.9,18L20,18l0,0L19.9,18C19.9,18,19.9,18,19.9,18L19.9,18z"/>
	<path class="st50" d="M12,15l1.8,0.7l-0.1,0L12,15L12,15L12,15z M19.9,17.9L20,18c0,0,0,0,0,0L19.9,17.9
		C19.9,17.9,19.9,17.9,19.9,17.9L19.9,17.9z"/>
	<path class="st51" d="M12.1,15l1.8,0.7l-0.1,0L12.1,15L12.1,15L12.1,15z M19.8,17.9l0.1,0.1l0,0L19.8,17.9
		C19.8,17.9,19.8,17.9,19.8,17.9L19.8,17.9z"/>
	<path class="st52" d="M12.2,15l1.8,0.7l-0.1,0L12.2,15L12.2,15L12.2,15z M19.8,17.9l0.1,0.1l0,0L19.8,17.9
		C19.8,17.9,19.8,17.9,19.8,17.9L19.8,17.9z"/>
	<path class="st52" d="M12.3,15l1.9,0.7l-0.1,0L12.3,15L12.3,15L12.3,15z M19.8,17.8l0.1,0.1c0,0,0,0,0,0L19.8,17.8
		C19.8,17.9,19.8,17.8,19.8,17.8L19.8,17.8z"/>
	<path class="st52" d="M12.3,15l1.9,0.7l-0.1,0L12.3,15L12.3,15L12.3,15z M19.8,17.8l0.2,0.1l0,0L19.8,17.8
		C19.8,17.8,19.8,17.8,19.8,17.8L19.8,17.8z"/>
	<path class="st52" d="M12.4,15l1.9,0.7l-0.1,0L12.4,15L12.4,15L12.4,15z M19.8,17.8l0.2,0.1c0,0,0,0,0,0L19.8,17.8
		C19.8,17.8,19.8,17.8,19.8,17.8L19.8,17.8z"/>
	<path class="st53" d="M12.5,15l2,0.8c0,0-0.1,0-0.1,0L12.5,15L12.5,15L12.5,15z M19.7,17.7l0.2,0.1l0,0L19.7,17.7
		C19.7,17.7,19.7,17.7,19.7,17.7L19.7,17.7z"/>
	<path class="st0" d="M12.5,15l2,0.8l-0.1,0L12.5,15L12.5,15L12.5,15z M19.7,17.7l0.2,0.1l0,0L19.7,17.7
		C19.7,17.7,19.7,17.7,19.7,17.7L19.7,17.7z"/>
	<path class="st0" d="M12.6,15l2,0.8l-0.1,0L12.6,15L12.6,15L12.6,15z M19.7,17.6l0.2,0.1l0,0L19.7,17.6
		C19.7,17.7,19.7,17.7,19.7,17.6L19.7,17.6z"/>
	<path class="st0" d="M12.7,15l2.1,0.8l-0.1,0L12.7,15L12.7,15L12.7,15z M19.6,17.6l0.2,0.1c0,0,0,0,0,0L19.6,17.6
		C19.7,17.6,19.7,17.6,19.6,17.6L19.6,17.6z"/>
	<path class="st54" d="M12.8,15l2.1,0.8l-0.1,0L12.8,15L12.8,15L12.8,15z M19.6,17.6l0.2,0.1c0,0,0,0,0,0L19.6,17.6
		C19.6,17.6,19.6,17.6,19.6,17.6L19.6,17.6z"/>
	<path class="st54" d="M12.9,15l2.2,0.8l-0.1,0L12.9,15L12.9,15L12.9,15z M19.6,17.5l0.2,0.1c0,0,0,0,0,0L19.6,17.5
		C19.6,17.6,19.6,17.5,19.6,17.5L19.6,17.5z"/>
	<path class="st54" d="M12.9,15l2.2,0.8c0,0-0.1,0-0.1,0L12.9,15L12.9,15L12.9,15z M19.5,17.5l0.2,0.1c0,0,0,0,0,0L19.5,17.5
		C19.6,17.5,19.5,17.5,19.5,17.5L19.5,17.5z"/>
	<path class="st54" d="M13,15l2.2,0.8c0,0-0.1,0-0.1,0L13,15L13,15L13,15z M19.5,17.4l0.3,0.1l0,0L19.5,17.4
		C19.5,17.5,19.5,17.5,19.5,17.4L19.5,17.4z"/>
	<path class="st55" d="M13.1,15l2.3,0.9c0,0-0.1,0-0.1,0L13.1,15L13.1,15L13.1,15z M19.4,17.4l0.3,0.1c0,0,0,0,0,0L19.4,17.4
		C19.5,17.4,19.5,17.4,19.4,17.4L19.4,17.4z"/>
	<path class="st56" d="M13.2,15l2.3,0.9c0,0-0.1,0-0.1,0L13.2,15C13.2,15,13.2,15,13.2,15L13.2,15z M19.4,17.3l0.3,0.1c0,0,0,0,0,0
		L19.4,17.3C19.4,17.4,19.4,17.4,19.4,17.3L19.4,17.3z"/>
	<path class="st56" d="M13.3,15l2.4,0.9c0,0-0.1,0-0.1,0L13.3,15C13.2,15,13.3,15,13.3,15L13.3,15z M19.3,17.3l0.3,0.1l0,0
		L19.3,17.3C19.4,17.3,19.4,17.3,19.3,17.3L19.3,17.3z"/>
	<path class="st56" d="M13.4,15l2.4,0.9c0,0-0.1,0-0.1,0L13.4,15L13.4,15L13.4,15z M19.3,17.3l0.4,0.1c0,0,0,0,0,0L19.3,17.3
		C19.3,17.3,19.3,17.3,19.3,17.3L19.3,17.3z"/>
	<path class="st56" d="M13.5,15L16,16c0,0-0.1,0-0.1,0L13.5,15C13.4,15,13.5,15,13.5,15L13.5,15z M19.2,17.2l0.4,0.2c0,0,0,0,0,0
		L19.2,17.2C19.2,17.2,19.2,17.2,19.2,17.2L19.2,17.2z"/>
	<path class="st57" d="M13.6,15l2.5,1c-0.1,0-0.1,0-0.2,0L13.5,15C13.5,15,13.6,15,13.6,15L13.6,15z M19.1,17.1l0.5,0.2l0,0
		c0,0,0,0,0,0L19.1,17.1L19.1,17.1C19.2,17.2,19.1,17.2,19.1,17.1L19.1,17.1z"/>
	<path class="st45" d="M13.7,15.1l2.6,1c-0.1,0-0.1,0-0.2,0l-2.5-1C13.6,15,13.7,15,13.7,15.1L13.7,15.1z M19,17.1l0.5,0.2
		c0,0,0,0,0,0L19,17.1C19.1,17.1,19.1,17.1,19,17.1L19,17.1z"/>
	<path class="st45" d="M13.8,15.1l2.6,1c0,0-0.1,0-0.1,0l0,0l-2.6-1C13.7,15.1,13.8,15.1,13.8,15.1L13.8,15.1z M18.9,17l0.6,0.2
		c0,0,0,0,0,0L18.9,17C19,17.1,19,17,18.9,17L18.9,17z"/>
	<path class="st45" d="M19.5,17.2L18.9,17c-0.6-0.4-1.5-0.7-2.5-1l-2.6-1l0,0c0.6,0.1,1.3,0.2,2.1,0.5c0.9,0.2,1.5,0.4,1.9,0.7
		C18.6,16.6,19.2,16.9,19.5,17.2L19.5,17.2z"/>
	<path class="st58" d="M19.2,7.4l-0.7,0c0,0,0,0,0,0.1l0.2,0l0.5,0c0.3,0,0.4,0.1,0.5,0.1c0.1,0.1,0.2,0.2,0.3,0.2
		c0.1,0,0.1,0,0.1-0.1C19.8,7.5,19.6,7.4,19.2,7.4L19.2,7.4z"/>
	<path class="st2" d="M19.4,8.8c-0.4,0.3-0.8,0.4-1,0.4c0,0-0.1,0,0,0.1l0.1,0.1c0.1,0,0.3,0,0.5-0.1c0.3-0.1,0.5-0.2,0.6-0.4l0,0
		L19.4,8.8L19.4,8.8z"/>
	<path class="st12" d="M18.4,9.4c0,0,0-0.1-0.1-0.1l-0.6,0c-0.1,0,0,0.1,0.1,0.1L18.4,9.4L18.4,9.4z"/>
	<path class="st12" d="M18.5,8.1c0.1-0.1,0-0.1-0.2-0.1c-0.4,0.1-0.8,0.3-1,0.5c-0.1,0.1-0.1,0.1-0.1,0.1c0,0,0.1,0,0.3-0.1
		C17.7,8.4,18,8.2,18.5,8.1L18.5,8.1z"/>
	<path class="st2" d="M18,10.3l-0.3,0.1L17,10.5c-0.1,0-0.1,0-0.2,0.1c-0.1,0.1,0,0.1,0,0.1c0.4,0.1,0.8,0,1.2-0.3
		c0.1-0.1,0.2-0.1,0.2-0.2L18,10.3L18,10.3z"/>
	<path class="st45" d="M14.7,10.8c0.2-0.1,0.2-0.2,0.1-0.2c-0.2-0.1-0.4-0.2-0.6-0.3c0.2,0.2,0.2,0.3,0.2,0.5l-0.6,0.8
		c-0.4,0.5-0.7,0.8-0.7,0.9c0,0.1,0,0,0.2-0.3c0.1-0.1,0.3-0.4,0.7-0.7L14.7,10.8L14.7,10.8z"/>
	<path class="st2" d="M13.6,14c-0.7-0.1-1.2-0.1-1.5,0c-0.2,0-0.3,0.1-0.3,0.2c0,0.1,0.8,0.2,2.3,0.2c1.3,0.2,2.5,0.6,3.5,1.1
		c0.4,0.2,0.7,0.3,0.8,0.3c0.1,0,0-0.1-0.2-0.2c-0.7-0.4-1.4-0.7-2.3-1C14.8,14.2,14.1,14,13.6,14L13.6,14z"/>
	<path class="st45" d="M12.2,13.6l0.4-0.4c-0.2,0.2-0.4,0.3-0.5,0.3l-1,0.3L12.2,13.6L12.2,13.6z"/>
	<path class="st45" d="M18.4,10.3c0.4-0.3,0.7-0.5,0.7-0.5c0.1-0.1-0.2,0-0.8,0.4C18.5,10.2,18.5,10.2,18.4,10.3L18.4,10.3z"/>
	<path class="st31" d="M18.3,15.8c-0.1,0,0.1,0.1,0.6,0.4c0.5,0.4,0.8,0.5,0.7,0.4c-0.1-0.1-0.3-0.3-0.6-0.5
		C18.6,15.9,18.4,15.8,18.3,15.8L18.3,15.8z"/>
	<path class="st2" d="M19.7,16.7c-0.1,0,0,0,0.1,0.2c0.2,0.3,0.4,0.5,0.5,0.6c0.1,0.2,0.2,0.5,0.3,1c0.1,0.3,0.2,0.4,0.2,0.4
		l0.1-0.1c0.1-0.4,0-0.8-0.4-1.3C20.2,17.2,19.9,16.9,19.7,16.7L19.7,16.7z"/>
	<path class="st2" d="M21.6,20.3c0.1,0,0,0,0-0.1L21,19.3c-0.1-0.1-0.2-0.2-0.2-0.1c-0.1,0.1-0.1,0.2,0,0.4c0,0.1,0.1,0.2,0.3,0.4
		C21.2,20.2,21.4,20.3,21.6,20.3L21.6,20.3z"/>
	<path class="st8" d="M22.7,21.3l-0.2-0.1c-0.1,0,0,0.1,0.1,0.2c0.1,0.1,0.2,0.2,0.3,0.2C23,21.7,23,21.6,22.7,21.3L22.7,21.3z"/>
	<path class="st5" d="M8.7,17.6c-1,0.8-1.8,1.4-2.7,1.9c-0.9,0.6-1.8,1-2.7,1.3C4,20.7,4.9,20.3,6,19.7C7,19.1,7.8,18.4,8.7,17.6
		L8.7,17.6z"/>
	<path class="st2" d="M3.3,20.4c0.1-0.1,0.1-0.1,0-0.1c-0.1,0-0.2,0-0.3-0.1c-0.1-0.1-0.1-0.1-0.1,0c0,0.1,0,0.2,0.2,0.3H3.3
		L3.3,20.4z"/>
	<path class="st45" d="M2.2,19.7c-0.2,0.2-0.3,0.5-0.4,0.8c-0.1,0.2,0,0.3,0.1,0.4l0.6,0.1L3,20.8c0.1-0.1,0.1-0.1,0-0.1
		c-0.4,0-0.6-0.1-0.8-0.3c0-0.1,0-0.2,0-0.5c0.1-0.3,0.1-0.5,0.1-0.6C2.4,19.4,2.3,19.5,2.2,19.7L2.2,19.7z"/>
	<path class="st0" d="M13.1,3.8c-0.3,0.4-0.4,0.9-0.3,1.3c0.1,0.4,0.3,0.7,0.7,0.9c0.4,0.2,0.9,0.3,1.7,0.2c1-0.1,1.5-0.3,1.5-0.6
		c0.1-0.6-0.2-1.2-0.6-1.8c-0.5-0.7-1.1-1-1.7-0.9C13.9,3,13.5,3.3,13.1,3.8L13.1,3.8z M15,3.9c0,0.1,0,0.2,0,0.2
		c0,0-0.1,0.1-0.2,0.1c-0.2,0-0.3,0-0.4-0.1c-0.1,0-0.1-0.1-0.1-0.2c0-0.1,0.1-0.2,0.2-0.3l0.3,0C14.9,3.7,15,3.8,15,3.9L15,3.9z
		 M15.5,5.6l0.3,0c0.1,0,0.1,0.1,0.1,0.1c0,0.1-0.2,0.1-0.4,0.1l-0.4,0c-0.1,0-0.1-0.1-0.1-0.1C15.2,5.6,15.3,5.6,15.5,5.6L15.5,5.6
		z M13.9,3.3C14.1,3.2,14.1,3.2,13.9,3.3c0,0.2-0.2,0.5-0.3,0.7c-0.2,0.5-0.3,0.9-0.1,1.1c0.1,0.2,0.3,0.4,0.5,0.5
		c0.5,0.2,0.8,0.3,1.1,0.3c0.3,0,0.6,0,0.9-0.1l0.2,0c-0.1,0.2-0.4,0.3-1,0.3c-0.6,0.1-1,0-1.4-0.1c-0.3-0.1-0.6-0.3-0.8-0.6
		C13,5.2,12.9,5,12.9,4.8c0-0.4,0.2-0.8,0.6-1.1L13.9,3.3L13.9,3.3z"/>
	<path class="st2" d="M15,4.1c0,0,0-0.1,0-0.2c0-0.1-0.1-0.2-0.3-0.3l-0.3,0c-0.1,0.1-0.2,0.2-0.2,0.3c0,0.1,0,0.2,0.1,0.2
		c0.1,0.1,0.3,0.1,0.4,0.1C14.9,4.2,15,4.1,15,4.1L15,4.1z"/>
	<path class="st59" d="M15.8,5.6l-0.3,0c-0.2,0-0.4,0-0.5,0.1c0,0.1,0,0.1,0.1,0.1l0.4,0c0.3,0,0.4-0.1,0.4-0.1
		C15.9,5.7,15.9,5.7,15.8,5.6L15.8,5.6z"/>
	<path class="st60" d="M14,3.3C14.1,3.2,14.1,3.2,14,3.3l-0.5,0.4c-0.4,0.4-0.6,0.7-0.6,1.1c0,0.2,0.1,0.4,0.2,0.6
		c0.2,0.2,0.4,0.4,0.8,0.6c0.3,0.1,0.8,0.2,1.4,0.1c0.6-0.1,0.9-0.2,1-0.3l-0.2,0c-0.3,0.1-0.6,0.1-0.9,0.1c-0.3,0-0.7-0.1-1.1-0.3
		c-0.2-0.1-0.4-0.3-0.5-0.5c-0.1-0.2-0.1-0.6,0.1-1.1C13.8,3.8,13.9,3.5,14,3.3L14,3.3z"/>
	<path class="st60" d="M14,3.3C14.1,3.2,14.1,3.2,14,3.3l-0.5,0.4c-0.4,0.4-0.6,0.7-0.6,1.1c0,0.2,0.1,0.4,0.2,0.6
		c0.2,0.2,0.4,0.4,0.8,0.6c0.3,0.1,0.8,0.2,1.4,0.1c0.6-0.1,0.9-0.2,1-0.3l-0.2,0c-0.3,0.1-0.6,0.1-0.9,0.1c-0.3,0-0.7-0.1-1.1-0.3
		c-0.2-0.1-0.4-0.3-0.5-0.5c-0.1-0.2-0.1-0.6,0.1-1.1C13.8,3.8,13.9,3.5,14,3.3L14,3.3z"/>
	<path class="st60" d="M14,3.3C14.1,3.2,14.1,3.2,14,3.3l-0.5,0.4c-0.4,0.4-0.6,0.7-0.6,1.1c0,0.2,0.1,0.4,0.2,0.6
		c0.2,0.2,0.4,0.4,0.8,0.6c0.3,0.1,0.8,0.2,1.4,0.1c0.6-0.1,0.9-0.2,1-0.3l-0.2,0c-0.3,0.1-0.6,0.1-0.9,0.1c-0.3,0-0.7-0.1-1.1-0.3
		c-0.2-0.1-0.4-0.3-0.5-0.5c-0.1-0.2-0.1-0.6,0.1-1.1C13.8,3.8,13.9,3.5,14,3.3L14,3.3z"/>
	<path class="st60" d="M14,3.3C14.1,3.2,14.1,3.2,14,3.3l-0.5,0.4c-0.4,0.4-0.6,0.7-0.6,1.1c0,0.2,0.1,0.4,0.2,0.6
		c0.2,0.2,0.4,0.4,0.8,0.6c0.3,0.1,0.8,0.2,1.4,0.1c0.6-0.1,0.9-0.2,1-0.3l-0.2,0c-0.3,0.1-0.6,0.1-0.9,0.1c-0.3,0-0.7-0.1-1.1-0.3
		c-0.2-0.1-0.4-0.3-0.5-0.5c-0.1-0.2-0.1-0.6,0.1-1.1C13.8,3.8,13.9,3.5,14,3.3L14,3.3z"/>
	<path class="st3" d="M14,3.3C14.1,3.2,14.1,3.2,14,3.3l-0.5,0.4c-0.4,0.4-0.6,0.7-0.6,1.1c0,0.2,0.1,0.4,0.2,0.6
		c0.2,0.2,0.4,0.4,0.8,0.6c0.3,0.1,0.8,0.2,1.4,0.1c0.6-0.1,0.9-0.2,1-0.3l-0.2,0c-0.3,0.1-0.6,0.1-0.9,0.1c-0.3,0-0.7-0.1-1.1-0.3
		c-0.2-0.1-0.4-0.3-0.5-0.5c-0.1-0.2-0.1-0.6,0.1-1.1C13.8,3.8,13.9,3.5,14,3.3L14,3.3z"/>
	<path class="st3" d="M14,3.3C14.1,3.2,14.1,3.2,14,3.3l-0.5,0.4c-0.4,0.4-0.6,0.7-0.6,1.1c0,0.2,0.1,0.4,0.2,0.6
		c0.2,0.2,0.4,0.4,0.8,0.6c0.3,0.1,0.8,0.2,1.4,0.1c0.6-0.1,0.9-0.2,1-0.3l-0.2,0c-0.3,0.1-0.6,0.1-0.9,0.1c-0.3,0-0.7-0.1-1.1-0.3
		c-0.2-0.1-0.4-0.3-0.5-0.5c-0.1-0.2-0.1-0.6,0.1-1.1C13.8,3.8,13.9,3.5,14,3.3L14,3.3z"/>
	<path class="st4" d="M14,3.3C14.1,3.2,14.1,3.2,14,3.3l-0.5,0.4c-0.4,0.4-0.6,0.7-0.6,1.1c0,0.2,0.1,0.4,0.2,0.6
		c0.2,0.2,0.4,0.4,0.8,0.6c0.3,0.1,0.8,0.2,1.4,0.1c0.6-0.1,0.9-0.2,1-0.3l-0.2,0c-0.3,0.1-0.6,0.1-0.9,0.1c-0.3,0-0.7-0.1-1.1-0.3
		c-0.2-0.1-0.4-0.3-0.5-0.5c-0.1-0.2-0.1-0.6,0.1-1.1C13.8,3.8,13.9,3.5,14,3.3L14,3.3z"/>
	<path class="st4" d="M14,3.3C14.1,3.2,14.1,3.2,14,3.3l-0.5,0.4c-0.4,0.4-0.6,0.7-0.6,1.1c0,0.2,0.1,0.4,0.2,0.6
		c0.2,0.2,0.4,0.4,0.8,0.6c0.3,0.1,0.8,0.2,1.4,0.1c0.6-0.1,0.9-0.2,1-0.3l-0.2,0c-0.3,0.1-0.6,0.1-0.9,0.1c-0.3,0-0.7-0.1-1.1-0.3
		c-0.2-0.1-0.4-0.3-0.5-0.5c-0.1-0.2-0.1-0.6,0.1-1.1C13.8,3.8,13.9,3.5,14,3.3L14,3.3z"/>
	<path class="st4" d="M14,3.3C14.1,3.2,14.1,3.2,14,3.3l-0.5,0.4c-0.4,0.4-0.6,0.7-0.6,1.1c0,0.2,0.1,0.4,0.2,0.6
		c0.2,0.2,0.4,0.4,0.8,0.6c0.3,0.1,0.8,0.2,1.4,0.1c0.6-0.1,0.9-0.2,1-0.3l-0.2,0c-0.3,0.1-0.6,0.1-0.9,0.1c-0.3,0-0.7-0.1-1.1-0.3
		c-0.2-0.1-0.4-0.3-0.5-0.5c-0.1-0.2-0.1-0.6,0.1-1.1C13.8,3.8,13.9,3.5,14,3.3L14,3.3z"/>
	<path class="st5" d="M13,5.3c0-0.1,0-0.1-0.1-0.2c0-0.1,0-0.2,0-0.3c0-0.4,0.2-0.8,0.6-1.1l0.4-0.4c0.1-0.1,0.2-0.1,0.1,0
		c-0.1,0.2-0.2,0.4-0.3,0.7c-0.2,0.5-0.3,0.9-0.1,1.1c0.1,0.2,0.3,0.4,0.5,0.5c0.5,0.2,0.8,0.3,1.1,0.3c0.3,0,0.6,0,0.9-0.1l0.2,0
		c-0.1,0.2-0.4,0.3-1,0.3c-0.6,0.1-1,0-1.4-0.1c-0.3-0.1-0.6-0.3-0.8-0.6C13.1,5.4,13.1,5.3,13,5.3L13,5.3z"/>
	<path class="st5" d="M13,5C13,5,13,5,13,5c0-0.1,0-0.2,0-0.2c0-0.4,0.2-0.8,0.6-1.1l0.4-0.4c0.1-0.1,0.2-0.1,0.1,0
		c-0.1,0.2-0.2,0.4-0.3,0.7c-0.2,0.5-0.3,0.9-0.1,1.1c0.1,0.2,0.3,0.4,0.5,0.5c0.5,0.2,0.8,0.3,1.1,0.3c0.3,0,0.6,0,0.9-0.1l0.2,0
		c-0.1,0.2-0.4,0.3-1,0.3c-0.6,0.1-1,0-1.4-0.1c-0.3-0.1-0.6-0.3-0.8-0.6l0,0C13.1,5.3,13,5.2,13,5L13,5z"/>
	<path class="st6" d="M13,5c0-0.1,0-0.1-0.1-0.2c0,0,0,0,0,0c0-0.4,0.2-0.8,0.6-1.1l0.4-0.4c0.1-0.1,0.2-0.1,0.1,0
		c-0.1,0.2-0.2,0.4-0.3,0.7c-0.2,0.5-0.3,0.9-0.1,1.1c0.1,0.2,0.3,0.4,0.5,0.5c0.5,0.2,0.8,0.3,1.1,0.3c0.3,0,0.6,0,0.9-0.1l0.2,0
		c-0.1,0.2-0.4,0.3-1,0.3c-0.6,0.1-1,0-1.4-0.1c-0.3-0.1-0.5-0.3-0.7-0.4C13.1,5.4,13.1,5.2,13,5L13,5z"/>
	<path class="st6" d="M13,5c0-0.1-0.1-0.2-0.1-0.2c0-0.4,0.2-0.7,0.6-1.1l0.4-0.4c0.1-0.1,0.2-0.1,0.1,0c-0.1,0.2-0.2,0.4-0.3,0.7
		c-0.2,0.5-0.3,0.9-0.1,1.1c0.1,0.2,0.3,0.4,0.5,0.5c0.5,0.2,0.8,0.3,1.1,0.3c0.3,0,0.6,0,0.9-0.1l0.2,0c-0.1,0.2-0.4,0.3-1,0.3
		c-0.6,0.1-1,0-1.4-0.1c-0.2-0.1-0.4-0.2-0.6-0.4C13.2,5.5,13.1,5.3,13,5L13,5z"/>
	<path class="st6" d="M13,5c0-0.1-0.1-0.2-0.1-0.3c0-0.4,0.2-0.7,0.6-1l0.4-0.4c0.1-0.1,0.2-0.1,0.1,0c-0.1,0.2-0.2,0.4-0.3,0.7
		c-0.2,0.5-0.3,0.9-0.1,1.1c0.1,0.2,0.3,0.4,0.5,0.5c0.5,0.2,0.8,0.3,1.1,0.3c0.3,0,0.6,0,0.9-0.1l0.2,0c-0.1,0.2-0.4,0.3-1,0.3
		c-0.6,0.1-1,0-1.4-0.1c-0.2-0.1-0.4-0.2-0.5-0.3C13.2,5.5,13.1,5.3,13,5L13,5z"/>
	<path class="st7" d="M13,5c0-0.1-0.1-0.2-0.1-0.4c0-0.3,0.2-0.7,0.5-1l0.4-0.4c0.1-0.1,0.2-0.1,0.1,0c-0.1,0.2-0.2,0.4-0.3,0.7
		c-0.2,0.5-0.3,0.9-0.1,1.1c0.1,0.2,0.3,0.4,0.5,0.5c0.5,0.2,0.8,0.3,1.1,0.3c0.3,0,0.6,0,0.9-0.1l0.2,0c-0.1,0.2-0.4,0.3-1,0.3
		c-0.6,0.1-1,0-1.4-0.1c-0.2-0.1-0.3-0.2-0.5-0.3C13.3,5.5,13.1,5.3,13,5L13,5z"/>
	<path class="st7" d="M13.1,5C13,4.9,13,4.7,13,4.6C13,4.3,13.2,4,13.5,3.7l0.4-0.4c0.1-0.1,0.2-0.1,0.1,0c-0.1,0.2-0.2,0.4-0.3,0.7
		c-0.2,0.5-0.3,0.9-0.1,1.1c0.1,0.2,0.3,0.4,0.5,0.5c0.5,0.2,0.8,0.3,1.1,0.3c0.3,0,0.6,0,0.9-0.1l0.2,0c-0.1,0.2-0.4,0.3-1,0.3
		c-0.6,0.1-1,0-1.4-0.1c-0.1-0.1-0.3-0.1-0.4-0.2C13.3,5.6,13.2,5.3,13.1,5L13.1,5z"/>
	<path class="st8" d="M13.1,5C13,4.9,13,4.7,13,4.6C13,4.3,13.2,4,13.5,3.7l0.4-0.4c0.1-0.1,0.2-0.1,0.1,0c-0.1,0.2-0.2,0.4-0.3,0.7
		c-0.2,0.5-0.3,0.9-0.1,1.1c0.1,0.2,0.3,0.4,0.5,0.5c0.5,0.2,0.8,0.3,1.1,0.3c0.3,0,0.6,0,0.9-0.1l0.2,0c-0.1,0.2-0.4,0.3-1,0.3
		c-0.6,0.1-1,0-1.4-0.1c-0.1,0-0.2-0.1-0.3-0.2C13.4,5.6,13.2,5.3,13.1,5L13.1,5z"/>
	<path class="st8" d="M13.1,5C13,4.8,13,4.7,13,4.5c0.1-0.3,0.2-0.5,0.5-0.8l0.4-0.4c0.1-0.1,0.2-0.1,0.1,0
		c-0.1,0.2-0.2,0.4-0.3,0.7c-0.2,0.5-0.3,0.9-0.1,1.1c0.1,0.2,0.3,0.4,0.5,0.5c0.5,0.2,0.8,0.3,1.1,0.3c0.3,0,0.6,0,0.9-0.1l0.2,0
		c-0.1,0.2-0.4,0.3-1,0.3c-0.6,0.1-1,0-1.4-0.1c-0.1,0-0.2-0.1-0.3-0.1C13.4,5.6,13.2,5.3,13.1,5L13.1,5z"/>
	<path class="st8" d="M13.1,5C13.1,4.8,13,4.6,13,4.5c0.1-0.3,0.2-0.5,0.5-0.8l0.4-0.4c0.1-0.1,0.2-0.1,0.1,0
		c-0.1,0.2-0.2,0.4-0.3,0.7c-0.2,0.5-0.3,0.9-0.1,1.1c0.1,0.2,0.3,0.4,0.5,0.5c0.5,0.2,0.8,0.3,1.1,0.3c0.3,0,0.6,0,0.9-0.1l0.2,0
		c-0.1,0.2-0.4,0.3-1,0.3c-0.6,0.1-1,0-1.4-0.1c-0.1,0-0.1-0.1-0.2-0.1C13.5,5.7,13.3,5.3,13.1,5L13.1,5z"/>
	<path class="st9" d="M13.1,5C13.1,4.8,13,4.6,13,4.4c0.1-0.2,0.2-0.5,0.5-0.7l0.4-0.4c0.1-0.1,0.2-0.1,0.1,0
		c-0.1,0.2-0.2,0.4-0.3,0.7c-0.2,0.5-0.3,0.9-0.1,1.1c0.1,0.2,0.3,0.4,0.5,0.5c0.5,0.2,0.8,0.3,1.1,0.3c0.3,0,0.6,0,0.9-0.1l0.2,0
		c-0.1,0.2-0.4,0.3-1,0.3c-0.6,0.1-1,0-1.4-0.1c-0.1,0-0.1,0-0.1-0.1C13.5,5.7,13.3,5.4,13.1,5L13.1,5z"/>
	<path class="st9" d="M13.2,5C13.1,4.8,13,4.6,13,4.4c0.1-0.2,0.2-0.5,0.5-0.7l0.4-0.4c0.1-0.1,0.2-0.1,0.1,0
		c-0.1,0.2-0.2,0.4-0.3,0.7c-0.2,0.5-0.3,0.9-0.1,1.1c0.1,0.2,0.3,0.4,0.5,0.5c0.5,0.2,0.8,0.3,1.1,0.3c0.3,0,0.6,0,0.9-0.1l0.2,0
		c-0.1,0.2-0.4,0.3-1,0.3c-0.6,0.1-1,0-1.4-0.1c0,0-0.1,0-0.1,0C13.5,5.7,13.3,5.4,13.2,5L13.2,5z"/>
	<path class="st10" d="M13.2,5c-0.1-0.2-0.1-0.4-0.1-0.6c0.1-0.2,0.2-0.4,0.5-0.6l0.4-0.4c0.1-0.1,0.2-0.1,0.1,0
		c-0.1,0.2-0.2,0.4-0.3,0.7c-0.2,0.5-0.3,0.9-0.1,1.1c0.1,0.2,0.3,0.4,0.5,0.5c0.5,0.2,0.8,0.3,1.1,0.3c0.3,0,0.6,0,0.9-0.1l0.2,0
		c-0.1,0.2-0.4,0.3-1,0.3c-0.6,0.1-1,0-1.4-0.1l0,0C13.6,5.7,13.3,5.4,13.2,5L13.2,5z"/>
	<path class="st10" d="M13.2,5c-0.1-0.2-0.1-0.4-0.1-0.7c0.1-0.2,0.2-0.4,0.4-0.6l0.4-0.4c0.1-0.1,0.2-0.1,0.1,0
		c-0.1,0.2-0.2,0.4-0.3,0.7c-0.2,0.5-0.3,0.9-0.1,1.1c0.1,0.2,0.3,0.4,0.5,0.5c0.5,0.2,0.8,0.3,1.1,0.3c0.3,0,0.6,0,0.9-0.1l0.2,0
		c-0.1,0.2-0.4,0.3-1,0.3c-0.6,0.1-1,0-1.3-0.1C13.6,5.8,13.4,5.4,13.2,5L13.2,5z"/>
	<path class="st10" d="M13.2,5c-0.1-0.2-0.1-0.5-0.1-0.7c0.1-0.2,0.2-0.4,0.4-0.6l0.4-0.4c0.1-0.1,0.2-0.1,0.1,0
		c-0.1,0.2-0.2,0.4-0.3,0.7c-0.2,0.5-0.3,0.9-0.1,1.1c0.1,0.2,0.3,0.4,0.5,0.5c0.5,0.2,0.8,0.3,1.1,0.3c0.3,0,0.6,0,0.9-0.1l0.2,0
		c-0.1,0.2-0.4,0.3-1,0.3c-0.5,0-0.9,0-1.3-0.1C13.7,5.8,13.4,5.4,13.2,5L13.2,5z"/>
	<path class="st11" d="M13.2,4.9c-0.1-0.2-0.1-0.5-0.1-0.7c0.1-0.2,0.2-0.3,0.4-0.5l0.4-0.4c0.1-0.1,0.2-0.1,0.1,0
		c-0.1,0.2-0.2,0.4-0.3,0.7c-0.2,0.5-0.3,0.9-0.1,1.1c0.1,0.2,0.3,0.4,0.5,0.5c0.5,0.2,0.8,0.3,1.1,0.3c0.3,0,0.6,0,0.9-0.1l0.2,0
		c-0.1,0.2-0.4,0.3-1,0.3c-0.5,0-0.9,0-1.2-0.1C13.7,5.8,13.4,5.4,13.2,4.9L13.2,4.9z"/>
	<path class="st11" d="M13.3,4.9c-0.1-0.3-0.1-0.5-0.1-0.8c0.1-0.2,0.2-0.3,0.4-0.5l0.4-0.4c0.1-0.1,0.2-0.1,0.1,0
		c-0.1,0.2-0.2,0.4-0.3,0.7c-0.2,0.5-0.3,0.9-0.1,1.1c0.1,0.2,0.3,0.4,0.5,0.5c0.5,0.2,0.8,0.3,1.1,0.3c0.3,0,0.6,0,0.9-0.1l0.2,0
		c-0.1,0.2-0.4,0.3-1,0.3c-0.5,0-0.9,0-1.2-0.1C13.7,5.8,13.4,5.4,13.3,4.9L13.3,4.9z"/>
	<path class="st12" d="M13.3,4.9c-0.1-0.3-0.1-0.5-0.1-0.8c0.1-0.2,0.2-0.3,0.4-0.4l0.4-0.4c0.1-0.1,0.2-0.1,0.1,0
		c-0.1,0.2-0.2,0.4-0.3,0.7c-0.2,0.5-0.3,0.9-0.1,1.1c0.1,0.2,0.3,0.4,0.5,0.5c0.5,0.2,0.8,0.3,1.1,0.3c0.3,0,0.6,0,0.9-0.1l0.2,0
		c-0.1,0.2-0.4,0.3-1,0.3c-0.4,0-0.8,0-1.1,0C13.8,5.8,13.5,5.4,13.3,4.9L13.3,4.9z"/>
	<path class="st12" d="M13.3,4.9c-0.1-0.3-0.1-0.5-0.1-0.8c0.1-0.1,0.2-0.3,0.3-0.4l0.4-0.4c0.1-0.1,0.2-0.1,0.1,0
		c-0.1,0.2-0.2,0.4-0.3,0.7c-0.2,0.5-0.3,0.9-0.1,1.1c0.1,0.2,0.3,0.4,0.5,0.5c0.5,0.2,0.8,0.3,1.1,0.3c0.3,0,0.6,0,0.9-0.1l0.2,0
		c-0.1,0.2-0.4,0.3-1,0.3c-0.4,0-0.8,0-1.1,0C13.8,5.8,13.5,5.4,13.3,4.9L13.3,4.9z"/>
	<path class="st12" d="M13.3,4.9c-0.1-0.3-0.1-0.6-0.1-0.8c0.1-0.1,0.2-0.3,0.3-0.4l0.4-0.4c0.1-0.1,0.2-0.1,0.1,0
		c-0.1,0.2-0.2,0.4-0.3,0.7c-0.2,0.5-0.3,0.9-0.1,1.1c0.1,0.2,0.3,0.4,0.5,0.5c0.5,0.2,0.8,0.3,1.1,0.3c0.3,0,0.6,0,0.9-0.1l0.2,0
		c-0.1,0.2-0.4,0.3-1,0.3c-0.4,0-0.7,0-1,0C13.9,5.8,13.5,5.4,13.3,4.9L13.3,4.9z"/>
	<path class="st13" d="M13.3,4.9c-0.1-0.3-0.1-0.6-0.1-0.9c0.1-0.1,0.2-0.2,0.3-0.3l0.4-0.4c0.1-0.1,0.2-0.1,0.1,0
		c-0.1,0.2-0.2,0.4-0.3,0.7c-0.2,0.5-0.3,0.9-0.1,1.1c0.1,0.2,0.3,0.4,0.5,0.5c0.5,0.2,0.8,0.3,1.1,0.3c0.3,0,0.6,0,0.9-0.1l0.2,0
		c-0.1,0.2-0.4,0.3-1,0.3c-0.4,0-0.7,0-1,0C13.9,5.9,13.5,5.4,13.3,4.9L13.3,4.9z"/>
	<path class="st13" d="M13.4,4.9c-0.1-0.3-0.1-0.6-0.1-0.9c0.1-0.1,0.2-0.2,0.3-0.3l0.4-0.4c0.1-0.1,0.2-0.1,0.1,0
		c-0.1,0.2-0.2,0.4-0.3,0.7c-0.2,0.5-0.3,0.9-0.1,1.1c0.1,0.2,0.3,0.4,0.5,0.5c0.5,0.2,0.8,0.3,1.1,0.3c0.3,0,0.6,0,0.9-0.1l0.2,0
		c-0.1,0.2-0.4,0.3-1,0.3c-0.3,0-0.6,0-0.9,0C13.9,5.9,13.6,5.4,13.4,4.9L13.4,4.9z"/>
	<path class="st13" d="M13.4,4.9c-0.1-0.3-0.1-0.6-0.1-0.9c0.1-0.1,0.2-0.2,0.3-0.3l0.4-0.4c0.1-0.1,0.2-0.1,0.1,0
		c-0.1,0.2-0.2,0.4-0.3,0.7c-0.2,0.5-0.3,0.9-0.1,1.1c0.1,0.2,0.3,0.4,0.5,0.5c0.5,0.2,0.8,0.3,1.1,0.3c0.3,0,0.6,0,0.9-0.1l0.2,0
		c-0.1,0.2-0.4,0.3-1,0.3c-0.3,0-0.6,0-0.8,0C14,5.9,13.6,5.4,13.4,4.9L13.4,4.9z"/>
	<path class="st14" d="M13.4,4.9c-0.1-0.3-0.2-0.6-0.1-0.9c0.1-0.1,0.1-0.2,0.2-0.3l0.4-0.4c0.1-0.1,0.2-0.1,0.1,0
		c-0.1,0.2-0.2,0.4-0.3,0.7c-0.2,0.5-0.3,0.9-0.1,1.1c0.1,0.2,0.3,0.4,0.5,0.5c0.5,0.2,0.8,0.3,1.1,0.3c0.3,0,0.6,0,0.9-0.1l0.2,0
		c-0.1,0.2-0.4,0.3-1,0.3c-0.3,0-0.6,0-0.8,0C14,5.9,13.6,5.5,13.4,4.9L13.4,4.9z"/>
	<path class="st14" d="M13.4,4.9c-0.1-0.3-0.2-0.6-0.1-1c0.1-0.1,0.1-0.1,0.2-0.2l0.4-0.4c0.1-0.1,0.2-0.1,0.1,0
		c-0.1,0.2-0.2,0.4-0.3,0.7c-0.2,0.5-0.3,0.9-0.1,1.1c0.1,0.2,0.3,0.4,0.5,0.5c0.5,0.2,0.8,0.3,1.1,0.3c0.3,0,0.6,0,0.9-0.1l0.2,0
		c-0.1,0.2-0.4,0.3-1,0.3c-0.3,0-0.5,0-0.7,0C14,5.9,13.6,5.5,13.4,4.9L13.4,4.9z"/>
	<path class="st15" d="M13.4,4.9c-0.1-0.3-0.2-0.7-0.1-1c0.1-0.1,0.1-0.1,0.2-0.2l0.4-0.4c0.1-0.1,0.2-0.1,0.1,0
		c-0.1,0.2-0.2,0.4-0.3,0.7c-0.2,0.5-0.3,0.9-0.1,1.1c0.1,0.2,0.3,0.4,0.5,0.5c0.5,0.2,0.8,0.3,1.1,0.3c0.3,0,0.6,0,0.9-0.1l0.2,0
		c-0.1,0.2-0.4,0.3-1,0.3c-0.2,0-0.5,0-0.7,0C14.1,5.9,13.6,5.5,13.4,4.9L13.4,4.9z"/>
	<path class="st15" d="M13.5,4.9c-0.1-0.3-0.2-0.7-0.1-1c0-0.1,0.1-0.1,0.2-0.2l0.4-0.4c0.1-0.1,0.2-0.1,0.1,0
		c-0.1,0.2-0.2,0.4-0.3,0.7c-0.2,0.5-0.2,0.8-0.2,1C13.5,5,13.5,4.9,13.5,4.9L13.5,4.9z M14.7,6.2c-0.4-0.2-0.8-0.5-1-0.9
		c0.1,0.2,0.2,0.3,0.4,0.3c0.5,0.2,0.8,0.3,1.1,0.3c0.3,0,0.6,0,0.9-0.1l0.2,0c-0.1,0.2-0.4,0.3-1,0.3C15.1,6.2,14.9,6.2,14.7,6.2
		L14.7,6.2z"/>
	<path class="st15" d="M13.5,4.9c-0.1-0.3-0.2-0.7-0.1-1c0,0,0.1-0.1,0.1-0.1l0.4-0.4c0.1-0.1,0.2-0.1,0.1,0
		c-0.1,0.2-0.2,0.4-0.3,0.7C13.5,4.4,13.5,4.7,13.5,4.9C13.5,4.9,13.5,4.9,13.5,4.9L13.5,4.9z M14.7,6.2C14.4,6,14,5.8,13.8,5.5
		c0.1,0.1,0.2,0.1,0.3,0.2c0.5,0.2,0.8,0.3,1.1,0.3c0.3,0,0.6,0,0.9-0.1l0.2,0c-0.1,0.2-0.4,0.3-1,0.3C15.1,6.1,14.9,6.2,14.7,6.2
		L14.7,6.2z"/>
	<path class="st16" d="M13.5,4.9c-0.1-0.3-0.2-0.7-0.1-1c0,0,0.1-0.1,0.1-0.1l0.4-0.4c0.1-0.1,0.2-0.1,0.1,0
		c-0.1,0.2-0.2,0.4-0.3,0.7C13.6,4.4,13.5,4.7,13.5,4.9L13.5,4.9L13.5,4.9z M14.8,6.2c-0.4-0.1-0.7-0.3-0.9-0.6
		c0.1,0,0.1,0.1,0.2,0.1c0.5,0.2,0.8,0.3,1.1,0.3c0.3,0,0.6,0,0.9-0.1l0.2,0c-0.1,0.2-0.4,0.3-1,0.3C15.1,6.1,15,6.2,14.8,6.2
		L14.8,6.2z"/>
	<path class="st16" d="M13.5,4.8c-0.1-0.3-0.1-0.7-0.1-1c0,0,0.1-0.1,0.1-0.1l0.4-0.4c0.1-0.1,0.2-0.1,0.1,0
		c-0.1,0.2-0.2,0.4-0.3,0.7C13.6,4.3,13.5,4.6,13.5,4.8L13.5,4.8z M14.9,6.2C14.5,6,14.2,5.8,14,5.6c0,0,0.1,0,0.1,0.1
		c0.5,0.2,0.8,0.3,1.1,0.3c0.3,0,0.6,0,0.9-0.1l0.2,0c-0.1,0.2-0.4,0.3-1,0.3C15.1,6.1,15,6.2,14.9,6.2L14.9,6.2z"/>
	<path class="st17" d="M13.5,4.8c-0.1-0.3-0.1-0.7-0.1-1c0,0,0,0,0.1-0.1l0.4-0.4c0.1-0.1,0.2-0.1,0.1,0c-0.1,0.2-0.2,0.4-0.3,0.7
		C13.6,4.3,13.5,4.6,13.5,4.8L13.5,4.8z M14.9,6.2c-0.3-0.1-0.7-0.3-0.9-0.5c0,0,0,0,0,0c0.5,0.2,0.8,0.3,1.1,0.3
		c0.3,0,0.6,0,0.9-0.1l0.2,0c-0.1,0.2-0.4,0.3-1,0.3C15.2,6.1,15,6.1,14.9,6.2L14.9,6.2z"/>
	<path class="st17" d="M13.5,4.7c-0.1-0.3-0.1-0.7,0-1l0,0l0.4-0.4c0.1-0.1,0.2-0.1,0.1,0c-0.1,0.2-0.2,0.4-0.3,0.7
		C13.6,4.3,13.5,4.5,13.5,4.7L13.5,4.7z M15,6.1c-0.3-0.1-0.7-0.3-0.9-0.5c0.5,0.2,0.8,0.3,1.1,0.3c0.3,0,0.6,0,0.9-0.1l0.2,0
		c-0.1,0.2-0.4,0.3-1,0.3C15.2,6.1,15.1,6.1,15,6.1L15,6.1z"/>
	<path class="st17" d="M13.5,4.6c-0.1-0.3-0.1-0.6,0-0.9l0,0l0.4-0.4c0.1-0.1,0.2-0.1,0.1,0c-0.1,0.2-0.2,0.4-0.3,0.7
		C13.6,4.3,13.5,4.5,13.5,4.6L13.5,4.6z M15.1,6.1c-0.4-0.1-0.7-0.2-0.9-0.5c0.4,0.2,0.8,0.3,1.1,0.3c0.3,0,0.6,0,0.9-0.1l0.2,0
		c-0.1,0.2-0.4,0.3-1,0.3C15.2,6.1,15.1,6.1,15.1,6.1L15.1,6.1z"/>
	<path class="st18" d="M13.5,4.6c-0.1-0.3-0.1-0.6,0-0.9l0.4-0.4c0.1-0.1,0.2-0.1,0.1,0c-0.1,0.2-0.2,0.4-0.3,0.7
		C13.6,4.2,13.6,4.4,13.5,4.6L13.5,4.6z M15.1,6.1c-0.4-0.1-0.7-0.2-1-0.5c0.4,0.2,0.7,0.3,1,0.3c0.3,0,0.6,0,0.9-0.1l0.2,0
		c-0.1,0.2-0.4,0.3-1,0.3C15.2,6.1,15.2,6.1,15.1,6.1L15.1,6.1z"/>
	<path class="st18" d="M13.5,4.5c-0.1-0.3-0.1-0.6,0-0.9l0.4-0.3c0.1-0.1,0.2-0.1,0.1,0c-0.1,0.2-0.2,0.4-0.3,0.7
		C13.6,4.2,13.6,4.4,13.5,4.5L13.5,4.5z M15.2,6.1c-0.4,0-0.7-0.2-1-0.4c0.4,0.2,0.7,0.2,0.9,0.2c0.3,0,0.6,0,0.9-0.1l0.2,0
		C16.2,6,15.9,6.1,15.2,6.1C15.3,6.1,15.3,6.1,15.2,6.1L15.2,6.1z"/>
	<path class="st19" d="M13.5,4.5c-0.1-0.3,0-0.6,0-0.9l0.4-0.3c0.1-0.1,0.2-0.1,0.1,0c-0.1,0.2-0.2,0.4-0.3,0.7
		C13.6,4.2,13.6,4.4,13.5,4.5L13.5,4.5z M15.3,6.1c-0.4,0-0.7-0.2-1-0.4c0.3,0.1,0.6,0.2,0.9,0.2c0.3,0,0.6,0,0.9-0.1l0.2,0
		C16.2,6,15.9,6.1,15.3,6.1L15.3,6.1z"/>
	<path class="st19" d="M13.6,4.5c0-0.3,0-0.6,0-0.8l0.4-0.3c0.1-0.1,0.2-0.1,0.1,0c-0.1,0.2-0.2,0.4-0.3,0.7
		C13.6,4.2,13.6,4.3,13.6,4.5L13.6,4.5z M15.5,6.1c-0.4,0-0.8-0.1-1.1-0.3c0.3,0.1,0.6,0.2,0.8,0.2c0.3,0,0.6,0,0.9-0.1l0.2,0
		C16.2,5.9,15.9,6.1,15.5,6.1L15.5,6.1z"/>
	<path class="st19" d="M13.6,4.4c0-0.3,0-0.6,0.1-0.8l0.3-0.3c0.1-0.1,0.2-0.1,0.1,0c-0.1,0.2-0.2,0.4-0.3,0.7
		C13.6,4.2,13.6,4.3,13.6,4.4L13.6,4.4z M15.6,6.1c-0.4,0-0.8-0.1-1.1-0.3c0.3,0.1,0.5,0.1,0.7,0.2c0.3,0,0.6,0,0.9-0.1l0.2,0
		C16.2,5.9,16,6,15.6,6.1L15.6,6.1z"/>
	<path class="st20" d="M13.6,4.4c0-0.3,0-0.5,0.1-0.8l0.3-0.2c0.1-0.1,0.2-0.1,0.1,0c-0.1,0.2-0.2,0.4-0.3,0.7
		C13.7,4.1,13.6,4.3,13.6,4.4L13.6,4.4z M15.8,6c-0.4,0.1-0.9,0-1.3-0.2c0.2,0.1,0.4,0.1,0.6,0.1c0.3,0,0.6,0,0.9-0.1l0.2,0
		C16.2,5.9,16.1,6,15.8,6L15.8,6z"/>
	<path class="st20" d="M13.6,4.3c0-0.3,0-0.5,0.1-0.8l0.3-0.2c0.1-0.1,0.2-0.1,0.1,0c-0.1,0.2-0.2,0.4-0.3,0.7
		C13.7,4.1,13.6,4.2,13.6,4.3L13.6,4.3z M16,6c-0.5,0.1-0.9,0.1-1.4-0.1c0.2,0.1,0.4,0.1,0.5,0.1c0.3,0,0.6,0,0.9-0.1l0.2,0
		C16.2,5.9,16.2,5.9,16,6L16,6z"/>
	<path class="st21" d="M13.6,4.3c0-0.3,0-0.5,0.1-0.7l0.2-0.2c0.1-0.1,0.2-0.1,0.1,0c-0.1,0.2-0.2,0.4-0.3,0.7
		C13.7,4.1,13.6,4.2,13.6,4.3L13.6,4.3z M16.1,5.9c-0.5,0.2-0.9,0.1-1.3,0c0.1,0,0.3,0.1,0.4,0.1c0.3,0,0.6,0,0.9-0.1l0.2,0
		C16.2,5.8,16.2,5.9,16.1,5.9L16.1,5.9z"/>
	<path class="st21" d="M13.6,4.2c0-0.2,0-0.5,0.1-0.7l0.2-0.2c0.1-0.1,0.2-0.1,0.1,0c-0.1,0.2-0.2,0.4-0.3,0.7
		C13.7,4.1,13.7,4.1,13.6,4.2L13.6,4.2z M16.2,5.9C16.2,5.9,16.2,5.9,16.2,5.9c-0.5,0.2-0.9,0.2-1.3,0c0.1,0,0.2,0,0.2,0
		c0.3,0,0.6,0,0.9-0.1L16.2,5.9C16.3,5.8,16.2,5.9,16.2,5.9L16.2,5.9z"/>
	<path class="st21" d="M13.7,4.1c0-0.2,0-0.5,0.1-0.7l0.2-0.1c0.1-0.1,0.2-0.1,0.1,0c-0.1,0.2-0.2,0.4-0.3,0.7
		C13.7,4.1,13.7,4.1,13.7,4.1L13.7,4.1z M16.2,5.8c0,0-0.1,0-0.1,0c-0.3,0.1-0.7,0.1-1,0.1c0,0,0.1,0,0.1,0c0.3,0,0.6,0,0.9-0.1
		L16.2,5.8C16.3,5.8,16.3,5.8,16.2,5.8L16.2,5.8z"/>
	<path class="st22" d="M13.7,4.1c0-0.2,0.1-0.4,0.1-0.7l0.1-0.1c0.1-0.1,0.2-0.1,0.1,0C13.9,3.5,13.8,3.8,13.7,4.1
		C13.7,4.1,13.7,4.1,13.7,4.1L13.7,4.1z M16.3,5.8c0,0-0.1,0-0.1,0.1C15.8,6,15.5,6,15.2,5.9c0.3,0,0.5,0,0.8-0.1L16.3,5.8L16.3,5.8
		L16.3,5.8z"/>
	<path class="st22" d="M13.7,4c0-0.2,0.1-0.4,0.1-0.6l0.1-0.1c0.1-0.1,0.2-0.1,0.1,0C13.9,3.5,13.8,3.8,13.7,4L13.7,4L13.7,4z
		 M16.2,5.8C16.2,5.8,16.2,5.8,16.2,5.8c-0.3,0.1-0.6,0.2-0.8,0.1c0.2,0,0.4-0.1,0.7-0.1L16.2,5.8L16.2,5.8z"/>
	<path class="st22" d="M13.7,4c0-0.2,0.1-0.4,0.2-0.6l0.1-0.1c0.1-0.1,0.2-0.1,0.1,0C13.9,3.5,13.8,3.7,13.7,4L13.7,4z M16.2,5.8
		C16.1,5.8,16.1,5.8,16.2,5.8c-0.2,0.1-0.4,0.1-0.6,0.1c0.2,0,0.3-0.1,0.5-0.1L16.2,5.8L16.2,5.8z"/>
	<path class="st23" d="M13.7,3.9c0-0.2,0.1-0.4,0.2-0.6l0,0c0.1-0.1,0.2-0.1,0.1,0C13.9,3.5,13.8,3.7,13.7,3.9L13.7,3.9z M16.1,5.8
		c-0.1,0-0.2,0.1-0.4,0.1C15.8,5.9,15.9,5.8,16.1,5.8L16.1,5.8L16.1,5.8z"/>
	<path class="st23" d="M13.8,3.8c0-0.2,0.1-0.4,0.2-0.5c0.1-0.1,0.2-0.1,0.1,0C13.9,3.5,13.9,3.7,13.8,3.8L13.8,3.8z"/>
	<path class="st24" d="M13.8,3.8c0-0.2,0.1-0.3,0.2-0.5c0.1-0.1,0.1,0,0.1,0C14,3.5,13.9,3.6,13.8,3.8L13.8,3.8z"/>
	<path class="st24" d="M13.9,3.7c0-0.1,0.1-0.3,0.2-0.4c0.1,0,0.1,0,0,0.1C14,3.4,13.9,3.5,13.9,3.7L13.9,3.7z"/>
	<path class="st24" d="M13.9,3.5c0-0.1,0.1-0.2,0.1-0.3c0,0,0,0,0,0.1C14,3.4,14,3.5,13.9,3.5L13.9,3.5z"/>
	<path class="st25" d="M14,3.3C14,3.3,14.1,3.3,14,3.3C14.1,3.3,14.1,3.3,14,3.3L14,3.3L14,3.3z"/>
</g>
</svg>
