<?xml version="1.0" encoding="utf-8"?>
<!-- Generator: Adobe Illustrator 27.2.0, SVG Export Plug-In . SVG Version: 6.00 Build 0)  -->
<svg version="1.1" id="Layer_1" xmlns="http://www.w3.org/2000/svg" xmlns:xlink="http://www.w3.org/1999/xlink" x="0px" y="0px"
	 viewBox="0 0 25 25" style="enable-background:new 0 0 25 25;" xml:space="preserve">
<style type="text/css">
	.st0{fill:url(#SVGID_1_);}
	.st1{fill:url(#SVGID_00000124150446362353369220000007018428647040652424_);}
	.st2{fill:url(#SVGID_00000067954453751204127920000016311307284099248319_);}
	.st3{fill:url(#SVGID_00000094593305285419516190000012068526815598396592_);}
</style>
<g>
	<g>
		
			<linearGradient id="SVGID_1_" gradientUnits="userSpaceOnUse" x1="23.3162" y1="287.1459" x2="5.8551" y2="270.105" gradientTransform="matrix(-0.8965 -0.443 -0.443 0.8965 146.6463 -237.1989)">
			<stop  offset="0" style="stop-color:#FC950B"/>
			<stop  offset="0.6129" style="stop-color:#F9C438"/>
		</linearGradient>
		<path class="st0" d="M11.6,8.1C6.5,6.4,2.8,8.7,0.8,11.3c-0.1,0.1-0.2,0-0.2-0.1c0.1-0.7,0.4-2,0.9-3.3c2.2-5,8.3-7.6,12-7.5
			c3.7,0.1,8,2.4,6.6,5.7C18.7,9.1,16.9,9.9,11.6,8.1z"/>
		
			<linearGradient id="SVGID_00000051362663823505797750000011314299009555675270_" gradientUnits="userSpaceOnUse" x1="21.4605" y1="280.1566" x2="11.7909" y2="294.3932" gradientTransform="matrix(-0.8965 -0.443 -0.443 0.8965 146.6463 -237.1989)">
			<stop  offset="0" style="stop-color:#FC950B"/>
			<stop  offset="1" style="stop-color:#F9C438"/>
		</linearGradient>
		<path style="fill:url(#SVGID_00000051362663823505797750000011314299009555675270_);" d="M7.8,8c0-0.1-0.1-0.1-0.1-0.1
			C6,7.9,2.4,9.1,0.5,12.5c0,0,0,0,0,0C0,16.5,7.6,19,7.8,8z"/>
	</g>
	<g>
		
			<linearGradient id="SVGID_00000175324095879618682240000009001358944216332192_" gradientUnits="userSpaceOnUse" x1="25.3035" y1="284.6667" x2="7.8424" y2="267.6259" gradientTransform="matrix(0.8965 0.443 0.443 -0.8965 -122.3297 259.0959)">
			<stop  offset="0" style="stop-color:#FC950B"/>
			<stop  offset="0.6129" style="stop-color:#F9C438"/>
		</linearGradient>
		<path style="fill:url(#SVGID_00000175324095879618682240000009001358944216332192_);" d="M13.4,16.9c5.1,1.7,8.7-0.6,10.8-3.2
			c0.1-0.1,0.2,0,0.2,0.1c-0.1,0.7-0.4,2-0.9,3.3c-2.2,5-8.3,7.6-12,7.5c-3.7-0.1-8-2.4-6.6-5.7C6.3,15.9,8.1,15.1,13.4,16.9z"/>
		
			<linearGradient id="SVGID_00000181054649964160903800000000916187841770877084_" gradientUnits="userSpaceOnUse" x1="23.4478" y1="277.6774" x2="13.7782" y2="291.9141" gradientTransform="matrix(0.8965 0.443 0.443 -0.8965 -122.3297 259.0959)">
			<stop  offset="0" style="stop-color:#FC950B"/>
			<stop  offset="1" style="stop-color:#F9C438"/>
		</linearGradient>
		<path style="fill:url(#SVGID_00000181054649964160903800000000916187841770877084_);" d="M17.2,17c0,0.1,0.1,0.1,0.1,0.1
			c1.7-0.1,5.3-1.3,7.1-4.6c0,0,0,0,0,0C25,8.5,17.4,6,17.2,17z"/>
	</g>
</g>
</svg>
