<?xml version="1.0" encoding="UTF-8"?>
<svg id="GraphQL_Logo" data-name="GraphQL Logo" xmlns="http://www.w3.org/2000/svg" viewBox="0 0 25 25">
  <rect x="-1.58" y="9.53" width="19.63" height="1.02" transform="translate(-4.58 12.15) rotate(-60)"/>
  <rect x="2.68" y="16.92" width="19.63" height="1.02"/>
  <rect x="7.73" y="14.22" width="1.02" height="11.34" transform="translate(-13.11 17.08) rotate(-60)"/>
  <rect x="16.25" y="-.55" width="1.02" height="11.34" transform="translate(3.95 17.08) rotate(-60)"/>
  <rect x="2.57" y="4.6" width="11.34" height="1.02" transform="translate(-1.45 4.8) rotate(-30)"/>
  <rect x="16.26" y=".22" width="1.02" height="19.63" transform="translate(-2.77 9.73) rotate(-30)"/>
  <rect x="3.46" y="6.83" width="1.02" height="11.34"/>
  <rect x="20.52" y="6.83" width="1.02" height="11.34"/>
  <rect x="11.83" y="19.44" width="9.86" height=".89" transform="translate(-7.7 11.05) rotate(-30)"/>
  <path d="m22.89,18.5c-.59,1.02-1.9,1.37-2.92.78s-1.37-1.9-.78-2.92c.59-1.02,1.9-1.37,2.92-.78,1.03.59,1.38,1.9.78,2.92"/>
  <path d="m5.81,8.64c-.59,1.02-1.9,1.37-2.92.78-1.02-.59-1.37-1.9-.78-2.92.59-1.02,1.9-1.37,2.92-.78,1.02.59,1.37,1.9.78,2.92"/>
  <path d="m2.11,18.5c-.59-1.02-.24-2.33.78-2.92,1.02-.59,2.33-.24,2.92.78.59,1.02.24,2.33-.78,2.92-1.03.59-2.34.24-2.92-.78"/>
  <path d="m19.19,8.64c-.59-1.02-.24-2.33.78-2.92,1.02-.59,2.33-.24,2.92.78.59,1.02.24,2.33-.78,2.92-1.02.59-2.34.24-2.92-.78"/>
  <path d="m12.5,24.5c-1.18,0-2.14-.96-2.14-2.14s.96-2.14,2.14-2.14,2.14.96,2.14,2.14-.96,2.14-2.14,2.14"/>
  <path d="m12.5,4.78c-1.18,0-2.14-.96-2.14-2.14s.96-2.14,2.14-2.14,2.14.96,2.14,2.14-.96,2.14-2.14,2.14"/>
</svg>