<?xml version="1.0" encoding="utf-8"?>
<!-- Generator: Adobe Illustrator 27.2.0, SVG Export Plug-In . SVG Version: 6.00 Build 0)  -->
<svg version="1.1" id="Layer_1" xmlns:serif="http://www.serif.com/"
	 xmlns="http://www.w3.org/2000/svg" xmlns:xlink="http://www.w3.org/1999/xlink" x="0px" y="0px" viewBox="0 0 25 25"
	 style="enable-background:new 0 0 25 25;" xml:space="preserve">
<style type="text/css">
	.st0{fill:#FFFFFF;}
	.st1{fill:#265787;}
	.st2{fill:#EA7600;}
</style>
<g>
	<g transform="matrix(5.19226,0,0,5.19226,-1154.33,1375.29)">
		<path class="st0" d="M224.2-262.3c0-0.3,0.2-0.6,0.4-0.8c0.2-0.2,0.5-0.3,0.8-0.3c0.3,0,0.6,0.1,0.8,0.3c0.2,0.2,0.4,0.5,0.4,0.8
			c0,0.3-0.1,0.6-0.3,0.8c-0.2,0.2-0.5,0.4-0.9,0.4s-0.7-0.1-0.9-0.4C224.3-261.7,224.2-262,224.2-262.3z"/>
	</g>
	<g transform="matrix(2.66418,0,0,2.66418,-520.324,532.513)">
		<path class="st1" d="M200.2-194.7c0-0.3,0.2-0.6,0.4-0.8c0.2-0.2,0.5-0.3,0.8-0.3c0.3,0,0.6,0.1,0.8,0.3c0.2,0.2,0.4,0.5,0.4,0.8
			c0,0.3-0.1,0.6-0.3,0.8c-0.2,0.2-0.5,0.4-0.9,0.4s-0.7-0.1-0.9-0.4C200.3-194.1,200.2-194.4,200.2-194.7z"/>
	</g>
	<g transform="matrix(2.66418,0,0,2.66418,-520.324,532.513)">
		<path class="st2" d="M198.3-194.1c0,0.1,0,0.3,0.1,0.5c0.1,0.4,0.3,0.7,0.6,1c0.3,0.3,0.6,0.6,1,0.8c0.4,0.2,0.9,0.3,1.4,0.3
			c0.5,0,0.9-0.1,1.4-0.3c0.4-0.2,0.8-0.4,1-0.8c0.3-0.3,0.5-0.7,0.6-1c0.1-0.2,0.1-0.4,0.1-0.6c0-0.2,0-0.4,0-0.6
			c-0.1-0.4-0.2-0.7-0.4-1c-0.2-0.3-0.4-0.6-0.7-0.8l0,0l-2.8-2.2c0,0,0,0,0,0c-0.2-0.1-0.5-0.1-0.7,0c-0.2,0.1-0.2,0.4,0,0.5l0,0
			l1.2,1l-3.6,0h0c-0.3,0-0.6,0.2-0.6,0.4c-0.1,0.2,0.1,0.5,0.5,0.5l0,0l1.8,0l-3.2,2.5c0,0,0,0,0,0c-0.3,0.2-0.4,0.6-0.2,0.9
			c0.2,0.3,0.6,0.3,0.9,0l1.8-1.4C198.3-194.4,198.2-194.2,198.3-194.1z M202.8-193.5c-0.4,0.4-0.9,0.6-1.4,0.6
			c-0.6,0-1.1-0.2-1.4-0.6c-0.2-0.2-0.3-0.4-0.4-0.6c-0.1-0.2-0.1-0.4-0.1-0.7c0-0.2,0.1-0.4,0.2-0.6c0.1-0.2,0.3-0.4,0.4-0.5
			c0.4-0.3,0.8-0.4,1.3-0.4c0.5,0,0.9,0.2,1.3,0.4c0.2,0.1,0.3,0.3,0.4,0.5c0.1,0.2,0.2,0.4,0.2,0.6c0,0.2,0,0.5-0.1,0.7
			C203.1-193.9,203-193.7,202.8-193.5z"/>
	</g>
</g>
</svg>
