<?xml version="1.0" encoding="utf-8"?>
<!-- Generator: Adobe Illustrator 27.2.0, SVG Export Plug-In . SVG Version: 6.00 Build 0)  -->
<svg version="1.1" id="Layer_1" xmlns="http://www.w3.org/2000/svg" xmlns:xlink="http://www.w3.org/1999/xlink" x="0px" y="0px"
	 viewBox="0 0 25 25" style="enable-background:new 0 0 25 25;" xml:space="preserve">
<style type="text/css">
	.st0{fill:#E535AB;}
</style>
<g>
	<path class="st0" d="M3.8,18.8l-0.9-0.5l9.8-17l0.9,0.5L3.8,18.8z"/>
	<path class="st0" d="M2.7,16.9h19.6v1H2.7L2.7,16.9z"/>
	<path class="st0" d="M12.9,23.2l-9.8-5.7l0.5-0.9l9.8,5.7L12.9,23.2z M21.4,8.4l-9.8-5.7l0.5-0.9l9.8,5.7L21.4,8.4z"/>
	<path class="st0" d="M3.6,8.4L3.1,7.5l9.8-5.7l0.5,0.9L3.6,8.4z"/>
	<path class="st0" d="M21.2,18.8l-9.8-17l0.9-0.5l9.8,17L21.2,18.8z M3.5,6.8h1v11.3h-1V6.8z"/>
	<path class="st0" d="M20.5,6.8h1v11.3h-1V6.8z"/>
	<path class="st0" d="M12.7,22.7L12.3,22l8.5-4.9l0.4,0.8L12.7,22.7z"/>
	<path class="st0" d="M22.9,18.5c-0.6,1-1.9,1.4-2.9,0.8c-1-0.6-1.4-1.9-0.8-2.9c0.6-1,1.9-1.4,2.9-0.8
		C23.1,16.2,23.5,17.5,22.9,18.5 M5.8,8.6c-0.6,1-1.9,1.4-2.9,0.8c-1-0.6-1.4-1.9-0.8-2.9S4,5.1,5,5.7C6.1,6.3,6.4,7.6,5.8,8.6
		 M2.1,18.5c-0.6-1-0.2-2.3,0.8-2.9c1-0.6,2.3-0.2,2.9,0.8c0.6,1,0.2,2.3-0.8,2.9C4,19.9,2.7,19.5,2.1,18.5 M19.2,8.6
		c-0.6-1-0.2-2.3,0.8-2.9c1-0.6,2.3-0.2,2.9,0.8c0.6,1,0.2,2.3-0.8,2.9C21.1,10,19.8,9.7,19.2,8.6 M12.5,24.5c-1.2,0-2.1-1-2.1-2.1
		c0-1.2,1-2.1,2.1-2.1s2.1,1,2.1,2.1C14.6,23.5,13.7,24.5,12.5,24.5 M12.5,4.8c-1.2,0-2.1-1-2.1-2.1s1-2.1,2.1-2.1s2.1,1,2.1,2.1
		S13.7,4.8,12.5,4.8"/>
</g>
</svg>
