<?xml version="1.0" encoding="UTF-8"?>
<svg id="Layer_1" data-name="Layer 1" xmlns="http://www.w3.org/2000/svg" viewBox="0 0 25 25">
  <defs>
    <style>
      .cls-1 {
        fill: #00b8ff;
      }
    </style>
  </defs>
  <path class="cls-1" d="m20.95,20.95h-3.56v-5.57c0-1.33-.02-3.04-1.85-3.04s-2.14,1.45-2.14,2.94v5.67h-3.56v-11.45h3.41v1.57h.05c.7-1.19,1.99-1.9,3.37-1.85,3.6,0,4.27,2.37,4.27,5.45v6.28ZM5.84,7.93c-1.14,0-2.06-.92-2.06-2.06,0-1.14.92-2.06,2.06-2.06,1.14,0,2.06.92,2.06,2.06,0,1.14-.92,2.06-2.06,2.06m1.78,13.02h-3.56v-11.45h3.56v11.45ZM22.72.5H2.27c-.97-.01-1.76.76-1.77,1.73v20.54c.01.97.8,1.74,1.77,1.73h20.45c.97.01,1.76-.76,1.78-1.73V2.23c-.01-.97-.81-1.74-1.78-1.73"/>
</svg>