<?xml version="1.0" encoding="utf-8"?>
<!-- Generator: Adobe Illustrator 27.2.0, SVG Export Plug-In . SVG Version: 6.00 Build 0)  -->
<svg version="1.1" id="_x32_" xmlns="http://www.w3.org/2000/svg" xmlns:xlink="http://www.w3.org/1999/xlink" x="0px" y="0px"
	 viewBox="0 0 25 25" style="enable-background:new 0 0 25 25;" xml:space="preserve">
<style type="text/css">
	.st0{fill:#000;}
</style>
<g>
	<path class="st0" d="M24.5,10.7c0-1.4-1.1-2.5-2.5-2.5h-3.6c-0.2,0-2,0-2.2,0c-0.3,0-0.6,0.1-0.8,0c-0.1,0-0.2,0-0.2,0l0,0l0,0
		c0,0,0-0.1,0-0.1c0,0,0-0.1,0-0.2l1.4-3.5c0.1-0.3,0.2-0.7,0.2-1c0-1.1-0.6-2.1-1.7-2.6c-0.3-0.1-0.7-0.2-1-0.2
		c-1.1,0-2.1,0.7-2.5,1.7l0,0L9.1,8.4h0c-0.2,0.4-0.3,0.7-0.4,1c-0.2,0.5-0.4,0.8-0.6,1c-0.1,0.1-0.2,0.2-0.4,0.2
		c-0.2,0.1-0.4,0.1-0.7,0.1c-0.2,0-0.3,0-0.5,0.1H2.6c-1.2,0-2.1,0.9-2.1,2.1v9.5c0,1.2,0.9,2.1,2.1,2.1h2.9c0.6,0,1.2-0.5,1.2-1.2
		v-1c0.2,0.1,0.4,0.2,0.6,0.3C8.1,22.9,9,23,10.2,23h9c1.4,0,2.5-1.1,2.5-2.5c0-0.3-0.1-0.6-0.2-0.9c1-0.3,1.7-1.3,1.7-2.4
		c0-0.4-0.1-0.9-0.3-1.2c0.3-0.2,0.5-0.6,0.6-0.9c0.1-0.4,0.2-0.7,0.2-1.1c0-0.2-0.1-0.5-0.1-0.7c-0.1-0.2-0.1-0.3-0.3-0.5
		C24,12.4,24.5,11.6,24.5,10.7z M22,11.9h-0.4c-0.2,0-0.3,0.1-0.4,0.2c-0.1,0.1-0.2,0.3-0.2,0.4c0,0.2,0.1,0.3,0.2,0.4
		s0.3,0.2,0.4,0.2c0.1,0,0.2,0,0.3,0.1c0.1,0.1,0.3,0.2,0.4,0.4c0.1,0.2,0.1,0.3,0.1,0.4c0,0.4-0.1,0.7-0.2,0.9
		c-0.1,0.1-0.1,0.2-0.2,0.2c-0.1,0.1-0.2,0.1-0.3,0.1c-0.2,0-0.4,0.2-0.5,0.5c-0.1,0.2,0,0.5,0.2,0.6c0.3,0.2,0.5,0.6,0.5,1
		c0,0.7-0.6,1.3-1.3,1.3h-0.3c-0.3,0-0.5,0.2-0.6,0.4c-0.1,0.2,0,0.5,0.2,0.7c0.3,0.2,0.4,0.6,0.4,0.9c0,0.7-0.6,1.3-1.3,1.3h-9
		c-0.9,0-1.7-0.1-2.3-0.3c-0.4-0.1-0.8-0.3-1-0.5c-0.1-0.1-0.2-0.2-0.3-0.3V12c0.1,0,0.2,0,0.4,0c0.5,0,1-0.1,1.4-0.3
		c0.3-0.1,0.5-0.3,0.7-0.6c0.3-0.3,0.5-0.7,0.6-1.1c0.2-0.4,0.3-0.8,0.5-1.2l0,0l2.4-6.1c0.2-0.6,0.8-0.9,1.4-1c0.2,0,0.4,0,0.6,0.1
		c0.6,0.2,1,0.8,1,1.4c0,0.2,0,0.4-0.1,0.6L14,7.5c0,0,0,0.1,0,0.1c0,0.1,0,0.3,0,0.4c0,0.2,0,0.4,0.1,0.6c0.1,0.2,0.2,0.3,0.3,0.4
		c0.2,0.2,0.4,0.3,0.6,0.3c0.2,0,0.4,0.1,0.5,0.1c0.3,0,0.7-0.1,0.8,0c0.2,0,2,0,2.2,0H22c0.7,0,1.3,0.6,1.3,1.3
		C23.3,11.4,22.7,11.9,22,11.9z"/>
</g>
</svg>
