<?xml version="1.0" encoding="UTF-8"?>
<svg id="Layer_1" data-name="Layer 1" xmlns="http://www.w3.org/2000/svg" viewBox="0 0 2000 2000">
  <defs>
    <style>
      .cls-1 {
        fill: #c6c6c6;
      }

      .cls-2 {
        fill: #ff6cce;
      }
    </style>
  </defs>
  <path class="cls-1" d="m460,1256.74v-338.63h36.55v39.12h4.49c2.78-4.27,6.65-9.75,11.62-16.43,4.97-6.68,12.13-12.67,21.49-17.96,9.35-5.29,22.05-7.94,38.08-7.94,20.74,0,39.02,5.19,54.83,15.55,15.82,10.37,28.16,25.07,37.04,44.09,8.87,19.03,13.31,41.47,13.31,67.34s-4.44,48.66-13.31,67.74c-8.87,19.08-21.16,33.83-36.87,44.25-15.71,10.42-33.83,15.63-54.35,15.63-15.82,0-28.49-2.65-38-7.94s-16.83-11.33-21.96-18.12c-5.13-6.79-9.09-12.43-11.87-16.92h-3.21v130.19h-37.84Zm37.2-215.49c0,18.6,2.73,34.98,8.18,49.14,5.45,14.16,13.41,25.23,23.89,33.19,10.47,7.96,23.3,11.95,38.48,11.95s29.05-4.19,39.68-12.59c10.63-8.39,18.65-19.72,24.05-33.99s8.1-30.17,8.1-47.7-2.65-32.95-7.94-46.9c-5.29-13.95-13.26-25.01-23.89-33.19-10.64-8.18-23.97-12.27-40-12.27s-28.33,3.88-38.8,11.63c-10.48,7.75-18.39,18.55-23.73,32.39-5.35,13.84-8.02,29.96-8.02,48.34Z"/>
  <path class="cls-1" d="m735.13,1164.39v-246.27h36.55v37.2h2.57c4.49-12.19,12.61-22.07,24.37-29.66,11.75-7.59,25.01-11.38,39.76-11.38,2.78,0,6.25.06,10.42.16,4.17.11,7.32.27,9.46.48v38.48c-1.28-.32-4.2-.83-8.74-1.52-4.54-.7-9.33-1.04-14.35-1.04-11.97,0-22.63,2.48-31.98,7.46-9.35,4.97-16.73,11.81-22.13,20.52-5.4,8.71-8.1,18.63-8.1,29.74v155.84h-37.84Z"/>
  <rect class="cls-2" x="903.82" y="918.11" width="37.84" height="246.27"/>
  <path class="cls-1" d="m1114.16,1129.12c-1.6.32-3.74.72-6.41,1.2-2.67.48-6.09.72-10.26.72-5.56,0-10.82-.88-15.79-2.65-4.97-1.76-9.04-5.29-12.19-10.58-3.15-5.29-4.73-13.28-4.73-23.97v-143.66h52.59v-32.07h-52.59v-59h-37.84v59h-37.2v32.07h37.2v153.92c0,14.33,3.34,26.19,10.02,35.6,6.68,9.41,15.12,16.41,25.33,21,10.21,4.59,20.65,6.89,31.35,6.89,7.05,0,12.88-.51,17.47-1.52,4.6-1.02,8.18-2.01,10.74-2.97l-7.7-33.99Z"/>
  <path class="cls-1" d="m1278.33,1129.12c-1.6.32-3.74.72-6.41,1.2-2.67.48-6.09.72-10.26.72-5.56,0-10.82-.88-15.79-2.65-4.97-1.76-9.04-5.29-12.19-10.58-3.15-5.29-4.73-13.28-4.73-23.97v-143.66h52.59v-32.07h-52.59v-59h-37.84v59h-37.2v32.07h37.2v153.92c0,14.33,3.34,26.19,10.02,35.6,6.68,9.41,15.12,16.41,25.33,21,10.21,4.59,20.65,6.89,31.35,6.89,7.05,0,12.88-.51,17.47-1.52,4.6-1.02,8.18-2.01,10.74-2.97l-7.7-33.99Z"/>
  <path class="cls-1" d="m1362.99,1256.74c-6.41,0-12.13-.51-17.16-1.52-5.02-1.02-8.49-2.01-10.42-2.97l9.62-33.35c9.19,2.35,17.31,3.21,24.37,2.56,7.05-.64,13.33-3.77,18.84-9.38,5.5-5.61,10.55-14.67,15.15-27.17l7.05-19.24-91.07-247.56h41.04l67.98,196.25h2.57l67.98-196.25h41.05l-104.54,282.19c-4.7,12.72-10.53,23.27-17.48,31.67-6.95,8.39-14.99,14.62-24.13,18.68-9.14,4.06-19.43,6.09-30.86,6.09Z"/>
  <path class="cls-2" d="m973.87,815.28c8.64-4.12,14.71-12.96,14.71-23.15,0-14.2-11.52-25.72-25.72-25.72-5.45,0-10.49,1.65-14.4,4.53v-1.95c0-14.2-11.52-25.72-25.72-25.72s-25.72,11.52-25.72,25.72v1.95c-3.91-2.88-8.95-4.53-14.4-4.53-14.2,0-25.72,11.52-25.72,25.72,0,10.19,6.07,19.03,14.71,23.15-8.64,4.12-14.71,12.86-14.71,23.15,0,14.2,11.52,25.72,25.72,25.72,5.45,0,10.49-1.75,14.4-4.53v1.95c0,14.2,11.52,25.72,25.72,25.72s25.72-11.52,25.72-25.72v-1.95c3.91,2.78,8.95,4.53,14.4,4.53,14.2,0,25.72-11.52,25.72-25.72,0-10.29-6.07-19.03-14.71-23.15Zm-51.13,25.72c-14.2,0-25.72-11.52-25.72-25.72s11.52-25.72,25.72-25.72,25.72,11.52,25.72,25.72-11.52,25.72-25.72,25.72Z"/>
</svg>