<?xml version="1.0" encoding="UTF-8"?>
<svg id="Layer_1" data-name="Layer 1" xmlns="http://www.w3.org/2000/svg" viewBox="0 0 2000 2000">
  <defs>
    <style>
      .cls-1 {
        fill: #d6d6d6;
      }

      .cls-2 {
        fill: #ff8fdf;
      }
    </style>
  </defs>
  <path class="cls-2" d="m983.57,1089.62c-17.86-8.25-37.79,3.89-41.82,24.82-3.24,16.82,2.9,30.86,14.67,42.33,13.25,12.91,27.21,25.1,40.89,37.57.71.65,1.68,1,2.9,1.71,15.07-13.71,30.51-26.74,44.73-40.99,11.96-11.99,17.21-26.94,12.4-44.04-6.02-21.4-28.47-30.42-46.32-18.68-4.49,2.95-8.58,6.52-12.18,9.29-4.06-3.29-8.99-9.12-15.26-12.02Z"/>
  <path class="cls-1" d="m1538.62,992.46c-4.78-14.67-20.55-22.69-35.22-17.92l-37.36,12.25c-9.43-54.2-27.42-106.56-53.29-155.12l-11.02-228c-.66-15.29-13.59-27.16-28.88-26.5-.07,0-.14,0-.21,0-6.71.27-13.08,3-17.92,7.66v.31l-105.96,100.91c-75.32-31.38-155.91-48.16-237.5-49.46-82.99-.44-165.16,16.34-241.33,49.31l-118.37-110.86c-11.27-10.49-28.9-9.86-39.39,1.41-4.76,5.11-7.42,11.82-7.47,18.8l-1.38,236.42c-29.02,48.61-49.09,102.03-59.26,157.72l-47.47-15.31c-14.67-4.78-30.44,3.24-35.22,17.92-4.78,14.67,3.24,30.44,17.92,35.22l61.25,19.6v3.83c.86,40.14,9.71,79.7,26.03,116.37l-38.28,5.21c-15.48,1.99-26.41,16.14-24.42,31.62,1.99,15.48,16.14,26.41,31.62,24.42l60.18-7.96c3.78,5.62,7.76,11.28,11.94,17,33.99,45.87,76.12,85.09,124.28,115.74l51.1,28.31-.06.1s15.22,6.69,23.28,9.74c30.63,12.76,62.42,22.5,94.94,29.09,34.42,7.51,69.51,11.56,104.74,12.1,77.18.86,153.7-14.2,224.79-44.25l51.46-27.07s103.19-76.99,137.8-131.26l5.36-8.88,45.02,5.67c15.31,1.86,29.22-9.04,31.08-24.35,1.86-15.31-9.04-29.22-24.35-31.08l-26.8-3.37c14.64-39.94,21.71-82.26,20.82-124.8l49.61-15.31c14.67-4.78,22.69-20.55,17.92-35.22Zm-146.24,168.29l-144.09-17.92c-15.43-1.2-28.91,10.34-30.1,25.77-1.12,14.49,9.02,27.44,23.36,29.81l121.74,15.31c-30.6,42.62-70.37,77.84-116.38,103.05-54.64,30.1-114.69,49.1-176.71,55.89-57.19,6.7-115.1,3.49-171.19-9.49v-.15c-20.78-5.21-41.23-11.66-61.25-19.29-70.49-27.03-132.31-72.71-178.85-132.15l99.07-13.94c15.27-1.99,26.03-15.97,24.04-31.24-1.99-15.26-15.97-26.03-31.24-24.04l-126.48,17.46c-15.57-29.43-25.2-61.64-28.33-94.78l149.45,48.54c14.84,4.86,30.82-3.23,35.68-18.07,4.86-14.84-3.23-30.82-18.07-35.68l-165.22-53.59c8.73-54.34,28.2-106.4,57.27-153.13,2.53-4.21,3.85-9.03,3.83-13.93l1.07-180.08,84.22,79.17c8.16,8.62,20.91,11.08,31.7,6.13,73.51-34.44,153.72-52.22,234.89-52.06,80.39,1.7,159.63,19.45,233.06,52.22,10.37,4.61,22.51,2.42,30.63-5.51l75.03-71.36,8.42,173.03c.2,4.05,1.25,8.01,3.06,11.64,25.68,47.24,42.93,98.59,50.99,151.75l-175.18,55.74c-14.67,4.74-22.73,20.47-17.99,35.14,4.74,14.67,20.47,22.73,35.14,17.99l160.32-51.6c-1.33,34.17-8.75,67.82-21.9,99.38Z"/>
</svg>