<?xml version="1.0" encoding="UTF-8"?>
<svg id="Layer_1" data-name="Layer 1" xmlns="http://www.w3.org/2000/svg" viewBox="0 0 500 200">
  <defs>
    <style>
      .cls-1 {
        fill: #c6c6c6;
      }

      .cls-2 {
        fill: #ff6cce;
      }
    </style>
  </defs>
  <path class="cls-2" d="m122.71,94.26c4.52-2.15,7.7-6.78,7.7-12.11,0-7.43-6.03-13.46-13.46-13.46-2.85,0-5.49.86-7.54,2.37v-1.02c0-7.43-6.03-13.46-13.46-13.46s-13.46,6.03-13.46,13.46v1.02c-2.05-1.51-4.68-2.37-7.54-2.37-7.43,0-13.46,6.03-13.46,13.46,0,5.33,3.18,9.96,7.7,12.11-4.52,2.15-7.7,6.73-7.7,12.11,0,7.43,6.03,13.46,13.46,13.46,2.85,0,5.49-.92,7.54-2.37v1.02c0,7.43,6.03,13.46,13.46,13.46s13.46-6.03,13.46-13.46v-1.02c2.05,1.45,4.68,2.37,7.54,2.37,7.43,0,13.46-6.03,13.46-13.46,0-5.38-3.18-9.96-7.7-12.11Zm-26.76,13.46c-7.43,0-13.46-6.03-13.46-13.46s6.03-13.46,13.46-13.46,13.46,6.03,13.46,13.46-6.03,13.46-13.46,13.46Z"/>
  <path class="cls-1" d="m191.27,54.06c-8.69,0-16.69,1.14-23.99,3.43-7.3,2.29-14.04,5.63-20.21,10.02v9.5c2.29-1.71,5.1-3.31,8.43-4.78,3.33-1.48,6.97-2.78,10.94-3.89,3.97-1.11,8.07-1.97,12.31-2.6,4.24-.63,8.42-.94,12.54-.94,5.5,0,11.07.54,16.71,1.63,5.64,1.09,10.88,2.56,15.71,4.4,4.83,1.85,8.77,3.91,11.82,6.18v-9.5c-6.17-4.39-12.91-7.73-20.21-10.02-7.31-2.29-15.31-3.43-24.03-3.43Z"/>
  <path class="cls-1" d="m25,99.36c0-8.69,1.14-16.69,3.43-23.99,2.29-7.3,5.63-14.04,10.02-20.21h9.5c-1.71,2.29-3.31,5.1-4.78,8.43-1.48,3.33-2.78,6.97-3.89,10.94-1.11,3.97-1.97,8.07-2.6,12.31-.63,4.24-.94,8.42-.94,12.54,0,5.5.54,11.07,1.63,16.71,1.09,5.64,2.56,10.88,4.4,15.71,1.85,4.83,3.91,8.77,6.18,11.82h-9.5c-4.39-6.17-7.73-12.91-10.02-20.21-2.29-7.31-3.43-15.31-3.43-24.03Z"/>
  <path class="cls-1" d="m296.95,145.94c-8.69,0-16.69-1.14-23.99-3.43-7.3-2.29-14.04-5.63-20.21-10.02v-9.5c2.29,1.71,5.1,3.31,8.43,4.78,3.33,1.48,6.97,2.78,10.94,3.89,3.97,1.11,8.07,1.97,12.31,2.6,4.24.63,8.42.94,12.54.94,5.5,0,11.07-.54,16.71-1.63,5.64-1.09,10.88-2.56,15.71-4.4,4.83-1.85,8.77-3.91,11.82-6.18v9.5c-6.17,4.39-12.91,7.73-20.21,10.02-7.31,2.29-15.31,3.43-24.03,3.43Z"/>
  <path class="cls-1" d="m383.1,54.06c-8.69,0-16.69,1.14-23.99,3.43-7.3,2.29-14.04,5.63-20.21,10.02v9.5c2.29-1.71,5.1-3.31,8.43-4.78,3.33-1.48,6.97-2.78,10.94-3.89,3.97-1.11,8.07-1.97,12.31-2.6,4.24-.63,8.42-.94,12.54-.94,5.5,0,11.07.54,16.71,1.63,5.64,1.09,10.88,2.56,15.71,4.4,4.83,1.85,8.77,3.91,11.82,6.18v-9.5c-6.17-4.39-12.91-7.73-20.21-10.02-7.31-2.29-15.31-3.43-24.03-3.43Z"/>
  <path class="cls-1" d="m475,99.98c0-8.69-1.14-16.69-3.43-23.99-2.29-7.3-5.63-14.04-10.02-20.21h-9.5c1.71,2.29,3.31,5.1,4.78,8.43,1.48,3.33,2.78,6.97,3.89,10.94,1.11,3.97,1.97,8.07,2.6,12.31.63,4.24.94,8.42.94,12.54,0,5.5-.54,11.07-1.63,16.71-1.09,5.64-2.56,10.88-4.4,15.71-1.85,4.83-3.91,8.77-6.18,11.82h9.5c4.39-6.17,7.73-12.91,10.02-20.21,2.29-7.31,3.43-15.31,3.43-24.03Z"/>
</svg>