<?xml version="1.0" encoding="UTF-8"?>
<svg id="Layer_1" data-name="Layer 1" xmlns="http://www.w3.org/2000/svg" viewBox="0 0 1500 250">
  <defs>
    <style>
      .cls-1 {
        fill: #fff;
      }
    </style>
  </defs>
  <path class="cls-1" d="m134.88,164.31c-2.7,0-5.02-.96-6.96-2.89-1.94-1.93-2.91-4.26-2.91-6.99s.97-5.01,2.91-6.94c1.94-1.93,4.26-2.89,6.96-2.89s5.02.96,6.96,2.89c1.94,1.93,2.91,4.24,2.91,6.94,0,1.81-.45,3.46-1.36,4.96-.91,1.5-2.1,2.69-3.58,3.58-1.48.89-3.13,1.33-4.94,1.33Z"/>
  <path class="cls-1" d="m196.46,164.9c-7.11,0-13.32-1.63-18.62-4.89-5.3-3.26-9.42-7.82-12.35-13.68-2.93-5.86-4.4-12.71-4.4-20.55s1.46-14.75,4.4-20.64c2.93-5.89,7.05-10.47,12.35-13.73,5.3-3.26,11.51-4.89,18.62-4.89s13.32,1.63,18.62,4.89c5.3,3.26,9.42,7.84,12.35,13.73,2.93,5.89,4.4,12.77,4.4,20.64s-1.47,14.69-4.4,20.55c-2.93,5.86-7.05,10.42-12.35,13.68-5.3,3.26-11.51,4.89-18.62,4.89Zm.05-12.4c4.61,0,8.43-1.22,11.46-3.65,3.03-2.44,5.28-5.68,6.74-9.73,1.46-4.05,2.2-8.51,2.2-13.38s-.73-9.29-2.2-13.36c-1.47-4.07-3.71-7.33-6.74-9.8-3.03-2.47-6.85-3.7-11.46-3.7s-8.49,1.23-11.53,3.7c-3.05,2.47-5.3,5.74-6.77,9.8-1.47,4.07-2.2,8.52-2.2,13.36s.73,9.33,2.2,13.38c1.46,4.05,3.72,7.29,6.77,9.73,3.04,2.44,6.89,3.65,11.53,3.65Z"/>
  <path class="cls-1" d="m263.03,118.33v45.04h-14.77v-75.86h14.17v12.35h.94c1.74-4.02,4.49-7.24,8.22-9.68,3.74-2.44,8.45-3.65,14.15-3.65,5.17,0,9.7,1.08,13.58,3.23,3.88,2.16,6.9,5.36,9.04,9.61,2.14,4.25,3.21,9.5,3.21,15.75v48.25h-14.77v-46.47c0-5.5-1.43-9.8-4.3-12.91-2.86-3.11-6.8-4.67-11.8-4.67-3.42,0-6.46.74-9.11,2.22-2.65,1.48-4.74,3.65-6.27,6.49-1.53,2.85-2.3,6.28-2.3,10.3Z"/>
  <path class="cls-1" d="m346.1,62.23v101.14h-14.77V62.23h14.77Z"/>
  <path class="cls-1" d="m373.41,75.81c-2.57,0-4.77-.86-6.59-2.59-1.83-1.73-2.74-3.79-2.74-6.2s.91-4.52,2.74-6.25c1.83-1.73,4.03-2.59,6.59-2.59s4.77.86,6.59,2.59c1.83,1.73,2.74,3.81,2.74,6.25s-.91,4.47-2.74,6.2c-1.83,1.73-4.03,2.59-6.59,2.59Zm-7.46,87.56v-75.86h14.77v75.86h-14.77Z"/>
  <path class="cls-1" d="m415.34,118.33v45.04h-14.77v-75.86h14.17v12.35h.94c1.74-4.02,4.49-7.24,8.22-9.68,3.74-2.44,8.45-3.65,14.15-3.65,5.17,0,9.7,1.08,13.58,3.23,3.88,2.16,6.9,5.36,9.04,9.61,2.14,4.25,3.21,9.5,3.21,15.75v48.25h-14.77v-46.47c0-5.5-1.43-9.8-4.3-12.91-2.86-3.11-6.8-4.67-11.8-4.67-3.42,0-6.46.74-9.11,2.22-2.65,1.48-4.74,3.65-6.27,6.49-1.53,2.85-2.3,6.28-2.3,10.3Z"/>
  <path class="cls-1" d="m516.33,164.9c-7.47,0-13.9-1.61-19.28-4.82-5.38-3.21-9.53-7.74-12.45-13.58-2.91-5.84-4.37-12.7-4.37-20.57s1.46-14.62,4.37-20.54c2.91-5.93,7-10.55,12.25-13.88,5.25-3.32,11.4-4.99,18.45-4.99,4.28,0,8.43.71,12.45,2.12,4.02,1.42,7.62,3.64,10.82,6.67,3.19,3.03,5.71,6.96,7.56,11.78,1.84,4.82,2.77,10.68,2.77,17.56v5.23h-60.3v-11.06h45.83c0-3.88-.79-7.33-2.37-10.35s-3.8-5.39-6.64-7.14c-2.85-1.74-6.18-2.62-10-2.62-4.15,0-7.76,1.01-10.84,3.04-3.08,2.02-5.45,4.66-7.11,7.9-1.66,3.24-2.49,6.76-2.49,10.54v8.64c0,5.07.9,9.38,2.69,12.94,1.79,3.56,4.3,6.26,7.53,8.12,3.23,1.86,7,2.79,11.31,2.79,2.8,0,5.35-.4,7.65-1.21,2.3-.81,4.3-2.02,5.98-3.63,1.68-1.61,2.96-3.61,3.85-5.98l13.98,2.52c-1.12,4.12-3.12,7.71-6,10.79-2.88,3.08-6.49,5.47-10.82,7.16-4.33,1.69-9.26,2.54-14.79,2.54Z"/>
  <path class="cls-1" d="m610.02,114.23v12.79h-44.84v-12.79h44.84Z"/>
  <path class="cls-1" d="m629.72,191.82v-104.3h14.42v12.3h1.23c.86-1.58,2.09-3.41,3.7-5.48,1.61-2.07,3.85-3.89,6.72-5.46,2.86-1.56,6.65-2.35,11.36-2.35,6.12,0,11.59,1.55,16.4,4.64,4.81,3.09,8.58,7.56,11.33,13.38,2.75,5.83,4.12,12.84,4.12,21.04s-1.37,15.22-4.1,21.06c-2.73,5.84-6.49,10.34-11.26,13.48-4.77,3.14-10.22,4.72-16.35,4.72-4.61,0-8.37-.77-11.28-2.32-2.91-1.55-5.19-3.36-6.84-5.43-1.65-2.07-2.91-3.92-3.8-5.53h-.89v40.25h-14.77Zm14.47-66.38c0,5.33.77,10.01,2.32,14.03,1.55,4.02,3.79,7.15,6.72,9.41,2.93,2.26,6.52,3.38,10.77,3.38s8.1-1.18,11.06-3.53c2.96-2.35,5.21-5.56,6.74-9.61,1.53-4.05,2.3-8.61,2.3-13.68s-.75-9.5-2.25-13.48c-1.5-3.98-3.74-7.13-6.72-9.43-2.98-2.3-6.69-3.46-11.14-3.46s-7.89,1.1-10.84,3.31c-2.95,2.21-5.18,5.28-6.69,9.23-1.52,3.95-2.27,8.56-2.27,13.83Z"/>
  <path class="cls-1" d="m715.55,163.37v-75.86h14.27v12.05h.79c1.38-4.08,3.83-7.3,7.33-9.65,3.51-2.35,7.48-3.53,11.93-3.53.92,0,2.02.03,3.29.1,1.27.07,2.26.15,2.99.25v14.12c-.59-.16-1.65-.35-3.16-.57-1.52-.21-3.03-.32-4.54-.32-3.49,0-6.59.73-9.31,2.2-2.72,1.47-4.86,3.49-6.44,6.07s-2.37,5.52-2.37,8.82v46.32h-14.77Z"/>
  <path class="cls-1" d="m798.92,164.9c-7.47,0-13.9-1.61-19.28-4.82-5.38-3.21-9.53-7.74-12.45-13.58s-4.37-12.7-4.37-20.57,1.46-14.62,4.37-20.54c2.91-5.93,7-10.55,12.25-13.88,5.25-3.32,11.4-4.99,18.45-4.99,4.28,0,8.43.71,12.44,2.12,4.02,1.42,7.62,3.64,10.82,6.67,3.19,3.03,5.71,6.96,7.56,11.78,1.84,4.82,2.77,10.68,2.77,17.56v5.23h-60.3v-11.06h45.83c0-3.88-.79-7.33-2.37-10.35-1.58-3.01-3.79-5.39-6.64-7.14-2.85-1.74-6.18-2.62-10-2.62-4.15,0-7.76,1.01-10.84,3.04-3.08,2.02-5.45,4.66-7.11,7.9s-2.49,6.76-2.49,10.54v8.64c0,5.07.9,9.38,2.69,12.94s4.3,6.26,7.53,8.12c3.23,1.86,7,2.79,11.31,2.79,2.8,0,5.35-.4,7.65-1.21,2.3-.81,4.3-2.02,5.98-3.63,1.68-1.61,2.96-3.61,3.85-5.98l13.98,2.52c-1.12,4.12-3.12,7.71-6,10.79-2.88,3.08-6.49,5.47-10.82,7.16-4.33,1.69-9.26,2.54-14.79,2.54Z"/>
  <path class="cls-1" d="m904.75,106.04l-13.38,2.37c-.56-1.71-1.44-3.34-2.64-4.89-1.2-1.55-2.82-2.81-4.86-3.8-2.04-.99-4.59-1.48-7.65-1.48-4.18,0-7.67.93-10.47,2.79-2.8,1.86-4.2,4.26-4.2,7.19,0,2.54.94,4.58,2.82,6.12,1.88,1.55,4.91,2.82,9.09,3.8l12.05,2.77c6.98,1.61,12.18,4.1,15.61,7.46,3.42,3.36,5.14,7.72,5.14,13.09,0,4.54-1.31,8.59-3.93,12.12-2.62,3.54-6.26,6.31-10.92,8.32-4.66,2.01-10.05,3.01-16.17,3.01-8.49,0-15.43-1.82-20.79-5.46-5.37-3.64-8.66-8.81-9.88-15.53l14.27-2.17c.89,3.72,2.72,6.53,5.48,8.42,2.77,1.89,6.37,2.84,10.82,2.84,4.84,0,8.71-1.01,11.61-3.04,2.9-2.03,4.35-4.5,4.35-7.43,0-2.37-.88-4.36-2.64-5.98-1.76-1.61-4.45-2.83-8.07-3.65l-12.84-2.81c-7.08-1.61-12.31-4.18-15.68-7.7-3.37-3.52-5.06-7.98-5.06-13.38,0-4.48,1.25-8.4,3.75-11.75s5.96-5.98,10.37-7.88c4.41-1.89,9.46-2.84,15.16-2.84,8.2,0,14.65,1.77,19.36,5.31,4.71,3.54,7.82,8.27,9.33,14.2Z"/>
  <path class="cls-1" d="m955.12,164.9c-7.47,0-13.9-1.61-19.28-4.82-5.38-3.21-9.53-7.74-12.45-13.58s-4.37-12.7-4.37-20.57,1.46-14.62,4.37-20.54c2.91-5.93,7-10.55,12.25-13.88,5.25-3.32,11.4-4.99,18.45-4.99,4.28,0,8.43.71,12.44,2.12,4.02,1.42,7.62,3.64,10.82,6.67,3.19,3.03,5.71,6.96,7.56,11.78,1.84,4.82,2.77,10.68,2.77,17.56v5.23h-60.3v-11.06h45.83c0-3.88-.79-7.33-2.37-10.35-1.58-3.01-3.79-5.39-6.64-7.14-2.85-1.74-6.18-2.62-10-2.62-4.15,0-7.76,1.01-10.84,3.04-3.08,2.02-5.45,4.66-7.11,7.9s-2.49,6.76-2.49,10.54v8.64c0,5.07.9,9.38,2.69,12.94s4.3,6.26,7.53,8.12c3.23,1.86,7,2.79,11.31,2.79,2.8,0,5.35-.4,7.65-1.21,2.3-.81,4.3-2.02,5.98-3.63,1.68-1.61,2.96-3.61,3.85-5.98l13.98,2.52c-1.12,4.12-3.12,7.71-6,10.79-2.88,3.08-6.49,5.47-10.82,7.16-4.33,1.69-9.26,2.54-14.79,2.54Z"/>
  <path class="cls-1" d="m1018.88,118.33v45.04h-14.77v-75.86h14.17v12.35h.94c1.74-4.02,4.49-7.24,8.22-9.68,3.74-2.44,8.45-3.65,14.15-3.65,5.17,0,9.7,1.08,13.58,3.23,3.88,2.16,6.9,5.36,9.04,9.61,2.14,4.25,3.21,9.5,3.21,15.75v48.25h-14.77v-46.47c0-5.5-1.43-9.8-4.3-12.91-2.86-3.11-6.8-4.67-11.8-4.67-3.42,0-6.46.74-9.11,2.22-2.65,1.48-4.74,3.65-6.27,6.49-1.53,2.85-2.3,6.28-2.3,10.3Z"/>
  <path class="cls-1" d="m1119.13,164.9c-7.34,0-13.65-1.67-18.94-5.01-5.28-3.34-9.34-7.96-12.17-13.85s-4.25-12.64-4.25-20.25,1.45-14.51,4.35-20.42c2.9-5.91,6.98-10.53,12.25-13.85,5.27-3.32,11.47-4.99,18.62-4.99,5.76,0,10.9,1.06,15.41,3.19,4.51,2.12,8.16,5.1,10.94,8.91s4.44,8.28,4.96,13.38h-14.37c-.79-3.56-2.59-6.62-5.41-9.19-2.81-2.57-6.58-3.85-11.28-3.85-4.12,0-7.71,1.08-10.79,3.24-3.08,2.16-5.47,5.22-7.19,9.19-1.71,3.97-2.57,8.65-2.57,14.05s.84,10.31,2.52,14.32c1.68,4.02,4.06,7.13,7.14,9.33,3.08,2.21,6.71,3.31,10.89,3.31,2.8,0,5.34-.52,7.63-1.56,2.29-1.04,4.21-2.53,5.78-4.47s2.66-4.28,3.29-7.01h14.37c-.53,4.91-2.12,9.28-4.79,13.14s-6.23,6.88-10.69,9.09c-4.46,2.21-9.69,3.31-15.68,3.31Z"/>
  <path class="cls-1" d="m1198.84,164.9c-7.47,0-13.9-1.61-19.28-4.82-5.38-3.21-9.53-7.74-12.45-13.58s-4.37-12.7-4.37-20.57,1.46-14.62,4.37-20.54c2.91-5.93,7-10.55,12.25-13.88,5.25-3.32,11.4-4.99,18.45-4.99,4.28,0,8.43.71,12.44,2.12,4.02,1.42,7.62,3.64,10.82,6.67,3.19,3.03,5.71,6.96,7.56,11.78,1.84,4.82,2.77,10.68,2.77,17.56v5.23h-60.3v-11.06h45.83c0-3.88-.79-7.33-2.37-10.35-1.58-3.01-3.79-5.39-6.64-7.14-2.85-1.74-6.18-2.62-10-2.62-4.15,0-7.76,1.01-10.84,3.04-3.08,2.02-5.45,4.66-7.11,7.9s-2.49,6.76-2.49,10.54v8.64c0,5.07.9,9.38,2.69,12.94s4.3,6.26,7.53,8.12c3.23,1.86,7,2.79,11.31,2.79,2.8,0,5.35-.4,7.65-1.21,2.3-.81,4.3-2.02,5.98-3.63,1.68-1.61,2.96-3.61,3.85-5.98l13.98,2.52c-1.12,4.12-3.12,7.71-6,10.79-2.88,3.08-6.49,5.47-10.82,7.16-4.33,1.69-9.26,2.54-14.79,2.54Z"/>
  <path class="cls-1" d="m1279.59,121.69v-7.41c5.56,0,9.45-1.14,11.66-3.43,2.21-2.29,3.31-6.08,3.31-11.38v-14.17c0-5.04.57-9.28,1.7-12.72s2.87-6.2,5.21-8.27c2.34-2.07,5.3-3.57,8.89-4.49s7.82-1.38,12.69-1.38v11.7c-3.82,0-6.8.56-8.94,1.68s-3.63,2.86-4.47,5.21c-.84,2.35-1.26,5.36-1.26,9.01v17.98c0,2.54-.38,4.88-1.14,7.04-.76,2.16-2.16,4.03-4.2,5.61-2.04,1.58-4.96,2.81-8.74,3.7-3.79.89-8.69,1.33-14.72,1.33Zm0,6.82v-14.22h13.68v14.22h-13.68Zm43.46,55.91c-4.87,0-9.1-.46-12.69-1.38s-6.55-2.42-8.89-4.49c-2.34-2.07-4.07-4.83-5.21-8.27s-1.7-7.68-1.7-12.72v-14.22c0-5.27-1.1-9.05-3.31-11.36s-6.09-3.46-11.66-3.46v-7.36c6.03,0,10.93.44,14.72,1.31,3.78.87,6.7,2.11,8.74,3.7,2.04,1.6,3.44,3.47,4.2,5.63.76,2.16,1.14,4.5,1.14,7.04v17.98c0,3.62.42,6.61,1.26,8.96.84,2.35,2.33,4.1,4.47,5.23,2.14,1.14,5.12,1.7,8.94,1.7v11.7Z"/>
  <path class="cls-1" d="m1331.54,58.43c4.87,0,9.1.46,12.69,1.38s6.55,2.42,8.89,4.49c2.34,2.07,4.07,4.83,5.21,8.27,1.14,3.44,1.7,7.68,1.7,12.72v14.17c0,5.3,1.1,9.1,3.31,11.38,2.21,2.29,6.09,3.43,11.66,3.43v7.41c-6.02,0-10.93-.44-14.72-1.33-3.79-.89-6.7-2.12-8.74-3.7-2.04-1.58-3.44-3.45-4.2-5.61-.76-2.16-1.14-4.5-1.14-7.04v-17.98c0-3.65-.42-6.66-1.26-9.01-.84-2.35-2.33-4.09-4.47-5.21s-5.12-1.68-8.94-1.68v-11.7Zm43.46,62.72v7.36c-5.56,0-9.45,1.15-11.66,3.46-2.21,2.3-3.31,6.09-3.31,11.36v14.22c0,5.04-.57,9.28-1.7,12.72-1.14,3.44-2.87,6.2-5.21,8.27-2.34,2.07-5.3,3.57-8.89,4.49s-7.82,1.38-12.69,1.38v-11.7c3.82,0,6.8-.57,8.94-1.7,2.14-1.14,3.63-2.88,4.47-5.23.84-2.35,1.26-5.34,1.26-8.96v-17.98c0-2.54.38-4.88,1.14-7.04s2.16-4.03,4.2-5.63c2.04-1.6,4.95-2.83,8.74-3.7,3.79-.87,8.69-1.31,14.72-1.31Zm0-6.87v14.22h-13.68v-14.22h13.68Z"/>
</svg>