<?xml version="1.0" encoding="UTF-8"?>
<svg id="Layer_1" data-name="Layer 1" xmlns="http://www.w3.org/2000/svg" viewBox="0 0 1250 150">
  <defs>
    <style>
      .cls-1 {
        fill: #00b8ff;
      }

      .cls-2 {
        fill: #9b9b9b;
      }
    </style>
  </defs>
  <path class="cls-1" d="m85,92.33c0-7.59,5.13-12.93,12.31-12.93s12.11,5.33,12.11,12.93-4.72,12.93-12.31,12.93c-7.18,0-12.1-5.54-12.1-12.93Z"/>
  <path class="cls-1" d="m213.23,44.74v12.31h-90.27v-12.31h90.27Z"/>
  <path class="cls-1" d="m230.05,92.33c0-7.59,5.13-12.93,12.31-12.93s12.11,5.33,12.11,12.93-4.72,12.93-12.31,12.93c-7.18,0-12.1-5.54-12.1-12.93Z"/>
  <path class="cls-2" d="m272.52,92.33c0-7.59,5.13-12.93,12.31-12.93s12.11,5.33,12.11,12.93-4.72,12.93-12.31,12.93c-7.18,0-12.11-5.54-12.11-12.93Z"/>
  <path class="cls-2" d="m487.74,44.74v12.31h-90.27v-12.31h90.27Z"/>
  <path class="cls-2" d="m504.57,92.33c0-7.59,5.13-12.93,12.31-12.93s12.11,5.33,12.11,12.93-4.72,12.93-12.31,12.93c-7.18,0-12.1-5.54-12.1-12.93Z"/>
  <path class="cls-2" d="m634.02,92.33c0-7.59,5.13-12.93,12.31-12.93s12.11,5.33,12.11,12.93-4.72,12.93-12.31,12.93c-7.18,0-12.11-5.54-12.11-12.93Z"/>
  <path class="cls-2" d="m763.48,92.33c0-7.59,5.13-12.93,12.31-12.93s12.11,5.33,12.11,12.93-4.72,12.93-12.31,12.93c-7.18,0-12.1-5.54-12.1-12.93Z"/>
  <path class="cls-2" d="m891.71,44.74v12.31h-90.27v-12.31h90.27Z"/>
  <path class="cls-2" d="m995.53,92.33c0-7.59,5.13-12.93,12.31-12.93s12.11,5.33,12.11,12.93-4.72,12.93-12.31,12.93c-7.18,0-12.11-5.54-12.11-12.93Z"/>
  <path class="cls-2" d="m1123.76,44.74v12.31h-90.27v-12.31h90.27Z"/>
  <path class="cls-2" d="m1140.59,92.33c0-7.59,5.13-12.93,12.31-12.93s12.11,5.33,12.11,12.93-4.72,12.93-12.31,12.93c-7.18,0-12.11-5.54-12.11-12.93Z"/>
</svg>