<?xml version="1.0" encoding="UTF-8"?>
<svg id="Layer_1" data-name="Layer 1" xmlns="http://www.w3.org/2000/svg" viewBox="0 0 25 25">
  <defs>
    <style>
      .cls-1 {
        fill: #ffc200;
      }
    </style>
  </defs>
  <path class="cls-1" d="m9.55,20.34h5.89c.28,0,.45-.17.45-.45v-1.3c0-1.97,2.87-3.24,2.87-6.76,0-3.7-2.51-6.18-6.26-6.18s-6.25,2.47-6.25,6.18,2.86,4.79,2.86,6.76v1.3c0,.28.18.45.45.45Z"/>
  <path d="m9.85,22.54h5.29c.42,0,.75-.34.75-.77s-.33-.77-.75-.77h-5.29c-.42,0-.75.34-.75.77s.33.77.75.77Z"/>
  <path d="m12.5,24.5c1.12,0,1.91-.51,1.99-1.3h-3.99c.07.79.86,1.3,1.99,1.3Z"/>
  <g>
    <rect class="cls-1" x="11.77" y=".5" width="1.46" height="2.92"/>
    <rect class="cls-1" x="1.55" y="10.72" width="2.92" height="1.46"/>
    <rect class="cls-1" x="20.53" y="10.72" width="2.92" height="1.46"/>
    <rect class="cls-1" x="4.11" y="3.7" width="1.46" height="3.1" transform="translate(-2.29 4.96) rotate(-45)"/>
    <rect class="cls-1" x="18.62" y="4.51" width="3.1" height="1.46" transform="translate(2.2 15.79) rotate(-45)"/>
  </g>
</svg>